<?xml version="1.0" standalone="no"?>
<!DOCTYPE svg PUBLIC "-//W3C//DTD SVG 20010904//EN"
 "http://www.w3.org/TR/2001/REC-SVG-20010904/DTD/svg10.dtd">
<svg version="1.0" xmlns="http://www.w3.org/2000/svg"
 width="310.000000pt" height="320.000000pt" viewBox="0 0 310.000000 320.000000"
 preserveAspectRatio="xMidYMid meet">
<metadata>
Created by potrace 1.10, written by Peter Selinger 2001-2011
</metadata>
<g transform="translate(0.000000,320.000000) scale(0.100000,-0.100000)"
fill="#000000" stroke="none">
<path d="M439 3022 c-24 -8 -59 -45 -59 -63 0 -22 18 -35 32 -21 6 6 6 12 -1
16 -6 4 -11 12 -11 17 0 13 60 38 77 32 18 -7 16 -33 -2 -33 -8 0 -15 5 -15
10 0 6 -5 10 -11 10 -7 0 -9 -10 -5 -24 3 -14 1 -28 -4 -31 -6 -4 -8 -11 -5
-16 4 -5 -1 -9 -9 -9 -21 0 -20 -17 1 -29 10 -5 15 -13 11 -17 -4 -4 -14 -1
-23 6 -8 7 -23 9 -32 5 -16 -6 -14 -9 10 -21 36 -19 81 -6 115 34 l22 27 -6
-37 c-8 -46 14 -53 34 -10 10 23 10 29 -3 38 -14 10 -14 13 0 24 17 14 20 56
5 65 -19 12 -107 31 -121 27z m109 -56 c2 -10 -1 -23 -7 -29 -16 -16 -34 6
-26 33 8 24 28 22 33 -4z m-50 -43 c5 -18 -28 -29 -38 -12 -5 7 -6 17 -3 22 7
12 35 5 41 -10z m-18 -48 c-7 -8 -17 -12 -22 -9 -6 4 -5 10 3 15 22 14 33 10
19 -6z"/>
<path d="M2464 2991 c-10 -11 -24 -16 -35 -14 -25 7 -24 -13 1 -27 26 -14 25
-34 -1 -59 l-22 -20 27 -46 c15 -25 32 -43 37 -39 6 4 1 16 -12 30 -21 23 -21
24 -3 24 10 0 36 3 57 6 31 6 37 4 37 -12 0 -12 3 -15 10 -8 8 8 8 19 0 38
-13 35 -13 46 1 46 6 0 9 -6 6 -13 -3 -7 1 -21 9 -32 17 -23 18 -67 2 -83 -17
-17 -24 -15 -48 10 -18 19 -22 20 -30 8 -12 -20 -1 -30 44 -37 45 -7 78 18 74
56 -3 23 0 25 37 23 92 -5 96 -6 93 -26 -4 -25 18 -32 26 -9 4 10 13 30 22 46
18 31 10 51 -17 44 -26 -7 -24 12 6 43 15 16 21 30 16 38 -6 10 -16 1 -37 -32
-16 -25 -32 -45 -36 -46 -15 0 -8 26 12 43 21 18 26 37 10 37 -18 0 -25 -5
-22 -15 2 -5 -3 -14 -11 -20 -8 -6 -16 -19 -19 -30 -2 -13 -10 -19 -22 -17
-10 2 -28 -6 -41 -18 -19 -18 -24 -19 -34 -6 -8 10 -9 16 -1 21 16 10 12 25
-5 19 -12 -5 -14 0 -9 25 5 24 3 31 -9 31 -9 0 -19 -4 -22 -10 -3 -5 -13 -10
-21 -10 -8 0 -14 5 -14 10 0 6 5 10 11 10 7 0 17 8 24 17 11 15 15 14 39 -10
31 -31 36 -33 36 -13 0 44 -133 66 -166 27z m51 0 c6 -11 -33 -36 -42 -27 -7
7 16 36 28 36 4 0 10 -4 14 -9z m0 -71 c10 -11 16 -23 12 -26 -10 -10 -41 5
-55 26 -10 17 -10 20 6 20 11 0 27 -9 37 -20z m-17 -47 c5 -18 -23 -16 -39 3
-11 14 -10 15 11 12 13 -1 25 -9 28 -15z m242 -8 c0 -8 -4 -15 -9 -15 -13 0
-22 16 -14 24 11 11 23 6 23 -9z m40 0 c0 -8 -4 -15 -10 -15 -5 0 -10 7 -10
15 0 8 5 15 10 15 6 0 10 -7 10 -15z"/>
<path d="M906 2929 c-31 -34 -56 -68 -56 -74 0 -12 69 -24 123 -21 54 2 26 21
-33 21 -35 0 -60 4 -60 10 1 13 75 95 86 95 5 0 17 -18 27 -40 9 -22 21 -40
26 -40 4 0 6 -11 3 -25 -5 -26 15 -36 24 -12 5 15 -58 139 -74 145 -5 1 -35
-25 -66 -59z"/>
<path d="M584 2874 c0 -27 4 -34 19 -34 14 0 17 5 12 21 -6 18 -4 20 15 14 17
-5 21 -3 18 10 -2 11 -14 18 -33 20 -29 2 -31 0 -31 -31z"/>
<path d="M2832 2888 c-16 -21 -24 -56 -13 -62 5 -4 21 5 36 20 21 20 23 29 14
40 -14 17 -24 18 -37 2z"/>
<path d="M2280 2811 c-14 -29 -17 -42 -8 -47 6 -4 16 0 23 9 7 10 20 14 32 11
16 -4 19 -13 18 -42 -3 -36 -20 -49 -20 -15 0 9 -6 18 -13 21 -6 2 -12 -1 -12
-7 0 -6 -6 -11 -13 -11 -8 0 -22 -8 -31 -19 -16 -17 -16 -20 -1 -35 9 -9 23
-16 31 -16 8 0 14 -5 14 -11 0 -5 5 -7 10 -4 6 4 8 15 5 26 -4 11 -2 19 5 19
6 0 8 -4 5 -10 -3 -5 0 -10 9 -10 8 0 17 -6 19 -12 4 -9 8 -10 14 -2 4 6 25
14 45 18 30 5 37 4 32 -7 -6 -18 -55 -41 -63 -30 -9 13 -44 9 -49 -5 -6 -20
81 -15 109 6 13 10 32 22 43 25 14 6 16 10 7 21 -8 10 -9 16 -1 21 5 3 14 -5
20 -19 9 -24 14 -26 74 -26 36 0 68 5 71 10 3 6 -1 10 -9 10 -9 0 -16 5 -16
10 0 6 9 10 20 10 13 0 20 -7 20 -20 0 -14 7 -20 22 -20 l21 0 -21 -23 c-29
-31 -28 -55 4 -68 31 -11 37 -8 28 15 -3 9 -16 16 -28 16 -19 0 -18 3 12 31
22 21 40 29 53 26 24 -6 49 17 49 45 0 16 -5 19 -24 14 -13 -3 -38 -3 -55 0
-36 7 -42 36 -14 66 25 28 6 35 -22 8 -14 -13 -25 -34 -25 -47 0 -13 -3 -22
-7 -20 -14 8 -53 -12 -53 -28 0 -8 -5 -15 -11 -15 -6 0 -9 9 -6 20 6 23 7 22
-91 24 -49 1 -77 -3 -84 -11 -13 -17 -48 -17 -48 0 0 6 -3 23 -7 36 -5 20 -3
23 11 18 19 -8 56 12 56 30 0 18 -34 33 -51 22 -25 -16 -49 -10 -49 11 0 33
-28 22 -50 -19z m288 -113 c-6 -18 -28 -21 -28 -4 0 9 7 16 16 16 9 0 14 -5
12 -12z m-273 -8 c3 -5 -1 -10 -9 -10 -8 0 -18 5 -21 10 -3 6 1 10 9 10 8 0
18 -4 21 -10z m435 0 c0 -5 -7 -10 -15 -10 -8 0 -15 5 -15 10 0 6 7 10 15 10
8 0 15 -4 15 -10z"/>
<path d="M340 2825 c0 -27 68 -31 144 -8 12 3 16 1 12 -6 -10 -16 9 -14 23 3
20 23 -2 27 -80 14 -57 -10 -73 -10 -77 0 -5 17 -22 15 -22 -3z"/>
<path d="M1760 2822 c-12 -10 -22 -28 -23 -41 -1 -14 -10 -27 -23 -31 -32 -13
-39 -30 -19 -48 16 -16 17 -16 11 5 -7 23 10 41 25 26 15 -15 -1 -43 -27 -49
-30 -8 -54 11 -47 36 4 14 0 20 -10 20 -10 0 -20 -15 -27 -41 -6 -22 -18 -43
-26 -46 -23 -9 -27 3 -10 30 29 43 -9 84 -45 51 -11 -10 -19 -13 -19 -7 0 19
-26 44 -53 48 -20 4 -34 -1 -52 -19 -14 -14 -25 -32 -25 -40 0 -19 47 -56 71
-56 23 0 49 -39 52 -76 2 -26 -1 -29 -26 -26 -17 2 -29 -3 -33 -13 -4 -10 -19
-15 -43 -15 -36 0 -144 -30 -157 -43 -11 -11 27 -8 66 4 19 6 54 12 78 13 40
2 42 1 42 -26 0 -15 5 -28 11 -28 8 0 9 11 5 31 -3 18 -1 38 5 45 14 16 55 18
64 4 5 -8 11 -7 21 1 19 16 30 4 15 -15 -7 -8 -9 -21 -5 -27 5 -9 10 -5 17 12
6 13 10 27 9 31 -2 10 36 20 48 13 5 -3 10 -2 10 3 0 19 48 21 126 7 43 -9 84
-22 90 -30 8 -11 23 -14 53 -10 39 5 42 3 36 -15 -5 -15 0 -21 19 -26 23 -5
24 -8 12 -27 -18 -30 -15 -51 8 -55 15 -3 18 1 14 20 -4 19 0 24 16 24 14 -1
26 9 36 32 11 26 19 32 35 29 36 -9 91 -32 116 -48 23 -16 23 -17 6 -37 -11
-12 -14 -22 -8 -26 6 -4 17 7 26 24 8 16 20 30 26 30 6 0 8 -4 4 -9 -3 -6 4
-15 15 -21 25 -13 26 -29 3 -46 -10 -7 -15 -16 -10 -20 4 -4 18 2 30 15 29 26
62 20 47 -9 -16 -31 -11 -35 13 -12 13 12 27 19 30 15 4 -3 7 -1 7 5 0 6 -16
16 -35 23 -19 7 -35 19 -35 26 0 7 -7 13 -15 13 -8 0 -15 4 -15 9 0 5 -13 12
-30 16 -16 4 -30 13 -30 20 0 9 -6 12 -15 9 -8 -4 -17 1 -21 9 -3 9 -12 13
-20 10 -10 -3 -12 0 -8 10 4 12 1 14 -15 10 -12 -3 -21 -1 -21 5 0 6 -16 8
-37 5 -24 -3 -45 1 -57 10 -19 14 -19 15 7 41 14 14 34 26 44 26 19 0 83 55
83 71 0 6 -5 19 -10 30 -18 33 -50 22 -100 -33 -48 -53 -70 -58 -70 -14 0 30
23 49 50 41 21 -7 28 9 9 20 -30 19 -78 -23 -71 -62 3 -15 -15 -26 -23 -14 -3
6 -13 8 -23 5 -14 -5 -15 -4 -2 5 22 15 5 24 -20 11 -25 -13 -17 -27 20 -33
37 -7 77 -24 85 -36 8 -14 4 -14 -38 4 -51 21 -217 44 -282 39 -32 -2 -55 0
-55 6 0 6 10 10 23 10 12 0 39 9 60 20 44 24 54 25 37 5 -17 -20 -15 -21 55
-28 58 -6 61 -5 104 32 26 23 41 42 37 49 -10 17 -26 15 -26 -2 0 -8 -15 -27
-34 -41 -40 -31 -91 -32 -91 -2 0 10 -6 22 -14 27 -12 7 -13 13 -3 35 18 39
14 53 -8 26 -11 -12 -18 -27 -15 -31 3 -5 1 -11 -5 -15 -14 -9 -13 58 2 73 7
7 19 12 28 12 21 0 40 -33 30 -51 -8 -12 4 -28 21 -29 11 0 4 68 -9 83 -20 23
-50 27 -72 9z m-265 -82 c3 -5 1 -10 -5 -10 -6 0 -8 -10 -4 -24 5 -20 2 -23
-19 -23 -19 0 -23 4 -20 18 3 11 0 19 -6 19 -6 0 -11 -4 -11 -10 0 -5 -4 -10
-10 -10 -14 0 -13 23 2 38 15 15 64 16 73 2z m80 -20 c7 -11 -15 -80 -25 -80
-5 0 -6 79 -1 88 3 6 20 1 26 -8z m-54 -30 c5 0 9 -4 9 -10 0 -5 -7 -10 -15
-10 -10 0 -15 9 -14 28 1 16 3 20 6 10 2 -10 9 -18 14 -18z m624 -13 c0 -9 -4
-18 -10 -19 -5 0 -15 -7 -20 -15 -6 -8 -25 -16 -43 -18 l-32 -4 17 24 c10 13
23 25 29 25 7 0 15 7 18 16 8 20 41 14 41 -9z m-485 3 c0 -5 -7 -10 -15 -10
-8 0 -15 5 -15 10 0 6 7 10 15 10 8 0 15 -4 15 -10z m55 -69 c-13 -13 -135
-25 -135 -13 0 15 7 17 77 20 44 2 65 0 58 -7z m75 -1 c0 -5 -9 -10 -19 -10
-11 0 -23 5 -26 10 -4 6 5 10 19 10 14 0 26 -4 26 -10z m56 -2 c4 -6 2 -14 -4
-16 -7 -2 -12 -11 -12 -19 0 -11 -6 -14 -22 -9 -13 3 -38 6 -55 6 -18 0 -33 5
-33 11 0 7 17 9 52 4 46 -7 51 -6 40 7 -6 8 -9 18 -5 21 10 11 31 8 39 -5z
m-281 -28 c-5 -8 -11 -8 -17 -2 -6 6 -7 16 -3 22 5 8 11 8 17 2 6 -6 7 -16 3
-22z m373 11 c6 -1 12 -6 12 -12 0 -6 -7 -9 -15 -6 -8 4 -17 2 -20 -2 -2 -5
15 -14 40 -20 42 -11 62 -31 31 -31 -8 0 -17 -6 -20 -12 -3 -7 -4 -4 -3 7 1
15 -4 20 -20 19 -13 0 -23 4 -23 9 0 5 -7 4 -15 -3 -12 -10 -13 -8 -10 10 4
18 2 20 -11 9 -11 -9 -18 -9 -26 -1 -9 9 -9 12 0 12 6 0 9 6 6 14 -5 13 -2 14
74 7z m72 -32 c0 -11 -3 -11 -24 -3 -23 9 -20 23 4 17 11 -3 20 -9 20 -14z
m25 -80 c-19 -35 -28 -36 -43 -5 -11 26 -8 29 40 33 17 2 17 -1 3 -28z"/>
<path d="M15 2819 c-10 -15 3 -25 16 -12 7 7 7 13 1 17 -6 3 -14 1 -17 -5z"/>
<path d="M625 2812 c-58 -4 -82 -10 -99 -27 -17 -17 -12 -40 10 -49 11 -4 13
0 8 19 -5 20 -2 25 19 31 40 9 46 -2 25 -46 -28 -55 -56 -70 -78 -40 -15 19
-18 20 -23 6 -4 -10 2 -21 18 -32 20 -13 28 -14 52 -2 15 7 32 23 38 36 5 12
17 22 26 22 9 0 20 7 23 16 4 12 1 14 -14 9 -11 -4 -20 -2 -20 2 0 17 24 33
51 33 15 0 32 7 39 15 11 13 9 15 -11 12 -13 -1 -42 -3 -64 -5z"/>
<path d="M650 2696 c0 -20 5 -36 10 -36 6 0 10 11 10 25 0 14 0 28 1 32 0 4
-4 9 -10 11 -7 2 -11 -11 -11 -32z"/>
<path d="M718 2718 c18 -18 14 -31 -8 -25 -13 3 -20 0 -20 -9 0 -10 10 -14 33
-12 18 1 38 -1 44 -5 6 -4 14 -3 17 2 3 5 -1 11 -9 15 -19 7 -19 26 0 26 8 0
15 5 15 10 0 6 -19 10 -42 10 -33 0 -39 -3 -30 -12z"/>
<path d="M816 2711 c-10 -11 -15 -25 -11 -30 8 -14 75 -14 75 0 0 6 -9 8 -22
4 -21 -6 -22 -5 -5 8 9 8 17 19 17 26 0 18 -35 13 -54 -8z"/>
<path d="M1833 2712 c-7 -4 -8 -13 -4 -20 6 -10 10 -10 20 2 13 16 2 29 -16
18z"/>
<path d="M1696 2542 c-3 -6 9 -13 28 -16 19 -4 39 -13 46 -21 16 -19 11 -19
-34 0 -47 20 -49 20 -57 -2 -7 -17 -8 -17 -8 0 -1 18 -35 24 -46 7 -4 -6 -10
-8 -15 -5 -4 3 -13 -2 -20 -10 -10 -12 -7 -15 14 -21 14 -3 26 -12 26 -19 0
-21 28 -38 54 -31 21 5 39 31 41 59 1 15 20 6 20 -10 0 -9 6 -18 13 -21 8 -2
10 2 5 14 -4 12 -3 15 5 10 15 -9 16 -43 1 -52 -25 -15 -83 -22 -107 -13 -18
7 -27 6 -33 -3 -4 -7 -11 -9 -16 -5 -4 5 -1 12 7 18 12 7 11 10 -7 15 -13 4
-23 13 -23 20 0 8 -4 14 -10 14 -16 0 -11 -25 10 -53 11 -14 20 -29 20 -35 0
-5 9 -17 20 -27 11 -10 20 -13 20 -7 0 6 7 9 15 6 8 -4 15 -1 15 6 0 6 -9 14
-20 17 -37 10 -20 19 34 19 35 -1 51 -5 45 -10 -5 -6 -9 -14 -9 -18 0 -12 62
22 82 45 19 21 15 34 -13 55 -10 7 -16 19 -13 27 9 22 -77 67 -90 47z m3 -88
c-14 -17 -45 -18 -55 -3 -4 7 0 9 14 5 13 -4 22 -1 26 9 3 9 11 13 16 10 8 -5
7 -11 -1 -21z"/>
<path d="M1465 2510 c-6 -10 31 -49 47 -50 17 0 18 23 2 41 -19 21 -39 25 -49
9z"/>
<path d="M1193 2465 c-28 -17 -63 -27 -114 -31 -87 -8 -185 -44 -315 -116
-146 -80 -207 -132 -271 -228 -72 -110 -116 -191 -107 -199 4 -3 9 0 11 7 3 6
9 12 14 12 5 0 4 -9 -3 -20 -7 -11 -19 -20 -26 -20 -7 0 -15 -8 -19 -17 -3
-10 -14 -36 -24 -59 -11 -23 -21 -61 -24 -86 -2 -25 -9 -58 -15 -73 -26 -70
-19 -394 10 -443 6 -11 10 -12 10 -4 0 7 5 10 10 7 15 -9 12 -25 -5 -25 -20 0
-19 -6 11 -81 52 -127 120 -249 140 -249 6 0 17 -7 24 -15 11 -13 10 -14 -6
-9 -19 7 -19 7 0 -14 10 -12 23 -19 29 -15 6 3 7 1 3 -5 -7 -11 26 -52 99
-127 170 -172 418 -286 720 -332 207 -31 412 -16 575 42 75 27 311 132 324
145 4 4 -3 11 -15 15 -13 4 -27 13 -31 19 -5 8 -10 8 -18 0 -9 -9 -6 -16 12
-29 17 -13 18 -16 4 -11 -10 3 -25 1 -32 -5 -11 -9 -18 -8 -29 1 -8 6 -19 9
-25 5 -6 -4 -18 -1 -26 6 -19 16 -30 4 -14 -16 8 -9 21 -13 36 -9 13 3 24 2
24 -4 0 -5 -10 -12 -22 -16 -33 -8 -40 -7 -33 4 3 6 -1 10 -10 10 -11 0 -15
-5 -11 -15 3 -9 -3 -19 -14 -25 -22 -12 -27 -1 -7 19 10 10 9 11 -5 6 -11 -4
-18 -2 -18 4 0 6 7 11 15 11 8 0 15 5 15 10 0 6 -3 10 -7 10 -14 -1 -43 -27
-43 -38 0 -7 -10 -6 -27 4 -36 18 -44 18 -37 -1 4 -8 14 -15 23 -16 11 0 10
-3 -7 -11 -13 -6 -21 -17 -18 -24 8 -20 -11 -26 -34 -12 -26 17 -25 24 5 32
14 4 25 11 25 16 0 13 -17 13 -24 1 -4 -5 -24 -12 -46 -16 -44 -7 -45 -8 -29
-37 14 -26 4 -35 -16 -15 -17 17 -21 57 -5 57 6 0 10 7 10 16 0 13 -3 14 -14
5 -7 -6 -21 -9 -30 -5 -9 3 -16 2 -16 -4 0 -5 7 -13 16 -16 13 -5 14 -9 4 -21
-7 -8 -15 -13 -19 -11 -4 3 -24 1 -45 -4 -51 -11 -69 -3 -63 27 3 15 0 22 -7
20 -6 -2 -10 -16 -8 -31 4 -34 -25 -36 -34 -1 -3 14 -10 23 -14 20 -5 -3 -6
-15 -2 -27 4 -17 2 -20 -12 -15 -10 4 -35 7 -56 7 -30 0 -40 5 -45 20 -3 11
-11 20 -17 20 -5 0 -8 -6 -5 -14 7 -18 -27 -28 -42 -13 -6 6 -11 20 -12 31 0
12 -3 15 -6 9 -2 -7 -9 -13 -15 -13 -6 0 -17 -8 -24 -17 -12 -16 -13 -15 -14
10 0 24 -3 27 -20 22 -16 -5 -20 -2 -20 19 0 14 -5 26 -11 26 -6 0 -8 -9 -4
-20 5 -16 2 -20 -14 -20 -12 0 -21 4 -21 9 0 6 -17 11 -37 13 -31 2 -38 7 -36
23 2 23 -45 51 -60 36 -6 -6 0 -12 17 -17 19 -4 25 -11 21 -22 -3 -8 3 -21 12
-28 15 -11 15 -13 3 -14 -22 0 -43 16 -36 28 3 5 -8 15 -24 22 -32 13 -38 26
-18 32 8 3 4 9 -10 17 -12 6 -22 21 -22 31 0 11 -4 20 -10 20 -5 0 -10 -7 -10
-15 0 -18 -12 -19 -28 -3 -16 16 -28 2 -13 -16 9 -11 7 -13 -14 -13 -18 0 -25
5 -24 16 2 28 -1 41 -11 41 -16 0 -160 103 -160 115 0 6 5 16 12 23 9 9 9 12
0 12 -7 0 -12 -4 -12 -10 0 -15 -21 -12 -42 7 -10 9 -21 13 -25 10 -3 -4 10
-22 31 -40 20 -18 33 -37 29 -40 -10 -11 -23 -8 -23 4 0 6 -14 24 -30 39 -32
30 -37 45 -17 53 9 4 8 8 -3 16 -21 15 -30 13 -24 -4 4 -8 1 -15 -6 -15 -8 0
-10 8 -6 23 3 12 6 25 6 28 0 3 12 11 26 18 18 8 24 17 20 27 -4 9 -2 22 4 29
8 9 5 14 -12 18 -23 6 -38 1 -38 -13 0 -5 7 -7 15 -4 22 9 15 -37 -8 -55 -22
-16 -35 -7 -18 13 17 20 -26 61 -46 45 -7 -6 -13 -8 -13 -3 0 4 -7 -1 -15 -12
-12 -15 -14 -16 -15 -3 0 9 11 22 25 29 14 7 25 19 25 27 0 19 -17 16 -30 -4
-10 -15 -11 -14 -6 7 6 30 -7 56 -23 46 -6 -4 -11 -2 -11 4 0 6 -5 8 -10 5 -6
-3 -10 -2 -10 4 0 5 7 14 15 18 12 7 13 14 3 41 -7 18 -16 32 -20 32 -12 0
-10 -8 8 -35 11 -17 12 -25 4 -25 -15 0 -40 25 -40 40 0 6 -7 25 -16 41 -11
23 -18 28 -28 20 -7 -6 -16 -8 -20 -4 -4 4 3 15 16 25 18 14 20 18 6 18 -9 0
-23 -7 -32 -15 -16 -17 -36 -20 -36 -6 0 5 9 11 19 14 14 3 18 11 14 26 -4 15
-1 21 12 21 12 0 15 5 10 21 -9 27 -13 49 -14 72 -1 9 -6 17 -11 17 -6 0 -9
-12 -6 -27 2 -16 5 -28 6 -28 1 0 3 -10 6 -22 2 -13 0 -23 -5 -23 -13 0 -32
26 -24 33 3 4 -5 7 -18 7 -22 1 -23 2 -6 14 21 16 22 27 2 20 -8 -4 -15 -2
-15 4 0 5 7 12 15 16 10 4 13 14 9 36 -5 24 -3 30 10 30 9 0 19 7 22 15 4 10
13 13 25 10 11 -4 19 -2 19 4 0 6 -6 11 -14 11 -8 0 -21 3 -29 6 -9 3 -16 -3
-20 -17 -4 -13 -9 -20 -13 -16 -4 4 -13 2 -20 -4 -10 -9 -15 -7 -20 5 -3 9
-10 14 -14 11 -5 -3 -8 4 -7 15 1 10 7 22 13 24 7 3 10 -3 7 -15 -4 -14 0 -19
16 -19 17 0 20 5 17 30 -2 17 0 33 5 36 5 3 3 14 -4 26 -9 16 -9 22 1 25 6 3
10 9 6 14 -3 5 -1 9 4 9 15 0 22 -28 9 -33 -7 -2 -9 -7 -6 -11 3 -3 13 -4 22
0 13 4 14 11 6 31 -7 18 -6 30 1 37 5 5 10 20 10 33 0 13 5 23 12 23 9 0 9 3
1 11 -6 6 -9 18 -6 25 3 8 -1 14 -10 14 -9 0 -14 9 -14 24 0 17 4 23 13 19 8
-3 14 -1 14 5 0 6 -6 13 -12 15 -8 3 -5 6 5 6 14 1 17 6 12 22 -5 14 -1 25 10
33 10 7 18 21 19 32 2 28 29 94 38 94 4 0 8 6 8 14 0 7 6 19 14 26 8 6 12 18
9 26 -3 8 1 14 11 14 21 0 20 10 -1 26 -24 16 -10 29 16 15 17 -10 24 -6 47
24 15 21 33 34 41 31 8 -3 13 2 13 13 0 11 -6 21 -12 24 -9 3 -5 11 11 26 28
24 38 26 43 9 3 -9 9 -8 21 4 9 9 14 24 11 32 -3 9 -2 16 4 16 21 0 21 -31 0
-55 -15 -17 -25 -22 -33 -15 -13 10 -45 4 -45 -9 0 -4 5 -12 12 -19 16 -16
-10 -65 -30 -57 -8 3 -12 0 -9 -7 2 -7 -9 -32 -24 -55 -31 -44 -34 -53 -21
-53 5 0 36 39 69 88 65 93 114 143 178 182 53 31 52 30 35 40 -10 6 -11 10 -3
10 7 0 10 7 7 15 -4 8 -1 15 5 15 6 0 11 -7 11 -15 0 -20 10 -19 74 9 138 61
218 68 305 26 24 -12 64 -25 90 -29 26 -4 60 -17 76 -29 17 -11 50 -26 75 -32
25 -7 50 -16 56 -21 5 -4 49 -13 97 -18 48 -6 93 -13 99 -17 7 -4 66 -7 132
-6 141 2 130 8 258 -138 117 -134 147 -178 165 -241 14 -50 20 -59 45 -64 15
-4 26 -11 22 -16 -3 -5 -13 -5 -25 1 -18 10 -19 6 -19 -102 0 -62 -3 -123 -6
-135 -5 -17 1 -24 30 -38 20 -10 36 -22 36 -27 0 -5 -6 -6 -12 -1 -7 4 -22 8
-33 8 -11 0 -25 4 -32 8 -18 11 -26 -11 -10 -27 11 -11 17 -12 26 -3 8 8 11 8
11 -1 0 -7 7 -12 15 -12 18 0 20 -16 4 -26 -6 -3 -15 -1 -19 5 -4 7 -22 14
-41 16 -19 1 -58 8 -87 15 -29 7 -62 10 -73 7 -10 -3 -29 3 -41 13 l-23 18 23
68 c13 38 31 78 41 89 10 11 31 43 46 71 28 50 28 53 12 78 -10 14 -24 26 -32
26 -8 0 -15 6 -15 14 0 17 -37 46 -58 46 -12 0 -11 -5 2 -25 24 -37 20 -46
-18 -30 -18 8 -37 11 -41 7 -4 -4 -6 3 -3 15 4 14 0 24 -9 27 -26 10 -35 -5
-18 -31 13 -19 14 -27 4 -39 -8 -10 -15 -12 -23 -4 -15 15 -33 12 -61 -12 -32
-28 -32 -37 6 -84 30 -38 31 -41 24 -114 -4 -46 -14 -87 -26 -106 -31 -52 -25
-70 36 -109 30 -19 59 -35 65 -35 24 0 7 -20 -35 -40 -45 -22 -124 -101 -172
-172 -14 -21 -31 -38 -37 -38 -21 0 -116 70 -116 86 0 9 20 39 45 66 25 28 45
56 45 64 0 7 14 30 32 49 27 31 30 40 22 63 -5 15 -16 27 -23 27 -8 0 -16 6
-19 14 -3 10 0 12 12 8 19 -8 20 0 4 36 -18 37 -33 28 -30 -16 4 -39 -7 -47
-28 -23 -6 8 -18 12 -26 9 -8 -3 -14 -1 -14 5 0 6 6 12 13 15 16 5 -9 37 -30
37 -10 0 -11 -4 -3 -19 25 -49 -7 -57 -40 -11 -12 17 -28 30 -36 30 -17 0 -17
-5 -2 -29 10 -17 8 -23 -12 -39 -23 -19 -24 -22 -13 -80 15 -81 -5 -165 -54
-222 -34 -39 -35 -41 -18 -66 9 -14 29 -30 45 -35 18 -7 40 -30 64 -72 l37
-61 -24 -20 c-89 -80 -178 -112 -306 -111 -50 0 -91 -3 -91 -7 0 -5 7 -8 15
-8 8 0 15 -4 15 -10 0 -5 -7 -10 -15 -10 -8 0 -15 5 -15 10 0 15 -39 12 -55
-4 -8 -7 -11 -16 -8 -20 4 -3 0 -6 -8 -6 -8 0 -16 11 -17 24 -2 27 23 41 52
30 9 -3 16 -1 16 5 0 14 -77 15 -82 1 -5 -15 -78 -25 -78 -11 0 6 5 11 10 11
23 0 7 29 -22 41 -18 7 -36 14 -39 16 -8 5 -21 -28 -14 -35 2 -3 10 0 18 6 8
7 18 7 27 2 12 -8 12 -10 1 -10 -11 0 -11 -3 0 -16 12 -15 11 -16 -11 -9 -69
21 -101 45 -63 45 14 0 15 2 4 9 -11 7 -10 10 5 13 15 2 11 8 -19 26 -41 24
-62 29 -51 11 10 -16 -29 6 -46 25 -9 12 -9 16 -1 16 7 0 9 5 6 10 -4 6 -15 8
-25 5 -10 -3 -21 -1 -25 4 -4 7 1 8 12 4 17 -5 17 -5 1 12 -9 9 -21 14 -27 11
-15 -10 -14 -22 5 -40 10 -10 11 -16 4 -16 -8 0 -7 -8 4 -24 13 -21 14 -28 2
-50 -11 -23 -15 -24 -32 -12 -18 14 -18 15 0 35 23 25 5 29 -19 4 -13 -13 -18
-14 -25 -3 -10 16 -30 4 -30 -18 0 -14 2 -14 9 -3 7 11 19 6 58 -25 26 -21 50
-42 51 -46 6 -14 22 -8 22 7 0 8 5 16 10 16 6 1 14 2 19 3 23 3 21 16 -2 16
-15 0 -27 -4 -27 -10 0 -16 -17 -11 -24 7 -9 23 20 51 36 35 7 -7 19 -12 27
-12 9 0 -1 12 -22 27 -20 14 -37 30 -37 35 0 14 16 9 36 -13 12 -13 25 -18 40
-15 13 4 26 2 29 -4 3 -5 -2 -10 -11 -10 -16 0 -16 -1 2 -16 16 -13 16 -15 2
-10 -30 9 -20 -14 12 -28 17 -7 27 -15 23 -19 -3 -4 1 -7 10 -7 8 0 19 -9 22
-20 5 -17 10 -18 27 -9 27 15 44 -2 29 -29 -14 -26 -14 -32 1 -32 6 0 9 3 5 6
-3 4 1 13 10 22 14 14 16 14 25 -1 5 -9 16 -17 24 -17 8 0 12 -4 9 -10 -3 -5
-2 -10 2 -10 5 0 14 9 21 20 7 11 17 20 23 20 5 0 7 -5 3 -11 -4 -7 -1 -10 7
-7 8 3 13 12 11 22 -3 19 19 21 36 4 16 -16 15 -28 -3 -28 -8 0 -15 -5 -15
-11 0 -7 -10 -9 -24 -5 -14 3 -28 2 -31 -4 -3 -6 4 -10 18 -10 14 0 27 -7 31
-15 3 -8 13 -15 23 -14 11 0 13 3 6 6 -22 8 -14 25 10 21 22 -4 24 -9 12 -40
-6 -15 -1 -18 30 -18 32 0 36 2 25 15 -10 12 -10 15 0 15 7 0 19 -8 26 -17 7
-10 16 -14 21 -9 4 5 2 11 -4 13 -9 3 -9 10 3 28 10 15 12 25 5 30 -14 8 -14
45 -1 45 14 0 23 -46 16 -81 -4 -22 -2 -29 7 -26 7 2 11 19 10 41 -2 33 0 36
17 31 15 -5 18 -3 14 9 -3 9 -2 16 4 16 10 0 22 -23 22 -41 0 -5 -9 -9 -20 -9
-13 0 -18 -5 -14 -15 4 -8 17 -15 31 -15 18 0 24 4 20 15 -4 8 -2 17 3 20 6 4
10 -1 10 -9 0 -9 7 -16 15 -16 21 0 19 -17 -3 -22 -15 -4 -18 -12 -14 -37 6
-44 22 -49 22 -7 0 38 18 48 39 23 8 -10 7 -17 -1 -25 -7 -7 -8 -12 -2 -12 6
0 14 3 18 7 4 5 13 8 19 8 7 0 11 8 9 18 -2 9 2 17 8 17 5 0 10 7 10 15 0 8 5
15 10 15 6 0 10 -6 9 -12 -3 -27 2 -38 16 -38 18 0 20 16 3 23 -10 4 -10 8 1
15 11 8 11 10 0 15 -9 3 -9 6 -2 6 6 1 18 -5 25 -12 32 -28 58 -38 78 -27 11
6 20 15 20 20 0 6 -8 5 -19 -2 -15 -9 -22 -8 -35 4 -12 12 -13 18 -3 21 9 4 8
8 -3 16 -8 5 -11 13 -7 17 10 10 39 -17 33 -33 -3 -7 -1 -13 5 -13 22 0 19 31
-5 53 -29 27 -34 47 -11 47 8 0 15 -7 15 -15 0 -8 5 -15 10 -15 6 0 10 -6 10
-14 0 -8 9 -24 19 -37 16 -19 22 -21 32 -12 10 10 17 9 32 -5 19 -16 19 -16
12 8 -10 33 -12 35 -29 20 -9 -6 -21 -10 -27 -8 -6 2 1 12 16 22 22 14 29 15
35 5 7 -10 17 -7 47 13 35 23 41 24 49 10 9 -13 14 -11 37 12 21 21 25 31 17
41 -8 10 -7 14 2 17 10 4 10 8 1 20 -11 12 -8 15 17 15 35 0 39 -12 10 -29
-23 -14 -27 -33 -6 -25 7 3 18 1 24 -5 8 -8 30 8 78 53 41 39 73 63 85 62 11
-2 19 2 19 7 0 6 -7 10 -16 10 -14 0 -14 2 -3 16 7 9 18 26 24 38 7 13 19 20
33 19 12 -2 22 2 22 7 0 6 -10 10 -22 10 -18 0 -20 2 -9 9 12 8 12 12 -2 26
-21 20 -22 35 -3 35 8 0 16 3 19 8 2 4 2 1 1 -6 -2 -6 1 -12 6 -12 6 0 10 -6
10 -13 0 -12 52 -37 78 -37 26 0 10 18 -22 24 -29 6 -33 10 -28 31 4 21 10 25
38 25 38 0 40 7 18 60 -8 22 -13 27 -11 13 1 -12 -2 -23 -8 -25 -5 -2 -11 14
-13 35 -3 32 -6 36 -18 26 -12 -9 -14 -6 -14 20 0 24 -4 31 -20 31 -11 0 -20
7 -20 15 0 9 -6 12 -15 9 -10 -4 -15 0 -15 15 0 12 -5 21 -11 21 -6 0 -8 -9
-4 -20 4 -11 2 -20 -4 -20 -6 0 -11 11 -11 25 0 15 -7 28 -17 32 -10 4 -22 12
-26 20 -4 7 -16 13 -25 13 -9 0 -28 9 -42 20 -14 11 -33 20 -42 20 -10 0 -18
7 -18 15 0 8 -5 15 -11 15 -7 0 -9 11 -5 30 4 22 2 30 -9 30 -8 0 -15 -7 -15
-15 0 -8 -5 -15 -11 -15 -6 0 -8 9 -3 23 9 31 12 33 33 20 15 -10 22 -7 41 14
12 13 19 28 15 31 -4 4 -11 -1 -16 -11 -12 -21 -31 -23 -23 -2 4 10 0 15 -15
15 -12 0 -21 5 -21 11 0 7 11 8 29 4 17 -3 32 -2 36 4 3 6 -1 11 -10 11 -13 0
-14 4 -4 21 8 17 8 23 -1 29 -7 4 -9 13 -6 19 4 6 0 11 -9 11 -9 0 -14 4 -11
9 9 14 -5 42 -18 38 -14 -5 -39 20 -31 32 3 5 1 13 -5 16 -8 5 -7 11 1 21 21
26 40 15 62 -36 11 -27 25 -50 29 -50 15 0 20 30 8 45 -10 12 -10 15 0 15 7 0
10 8 7 20 -6 25 19 48 36 31 14 -14 12 -90 -3 -105 -16 -16 -12 -23 15 -23 20
0 24 3 20 18 -5 15 -2 18 12 13 17 -5 17 -5 1 9 -10 8 -18 17 -18 20 0 4 8 4
18 1 14 -5 14 -4 3 4 -11 8 -12 14 -3 24 7 10 8 18 2 24 -7 7 0 10 18 9 20 0
28 -6 30 -22 4 -27 -27 -88 -68 -132 -17 -18 -29 -38 -27 -45 2 -6 -2 -29 -10
-51 -19 -53 -10 -83 30 -100 17 -7 35 -11 38 -9 4 2 9 -3 13 -11 3 -8 10 -15
17 -15 6 0 9 7 5 15 -6 18 29 21 39 4 4 -6 13 -8 21 -5 9 3 14 -2 14 -14 0
-11 5 -20 10 -20 6 0 10 6 10 14 0 19 34 10 56 -15 9 -10 23 -19 29 -19 12 0
26 -27 40 -77 4 -15 11 -20 22 -16 12 5 15 2 10 -10 -3 -9 -2 -17 3 -17 6 0
10 5 10 10 0 6 7 10 15 10 24 0 17 -17 -10 -24 -30 -8 -33 -26 -5 -26 18 0 27
-21 21 -53 -1 -5 4 -7 11 -4 7 2 12 14 11 25 -2 15 2 20 12 16 8 -4 15 -1 15
5 0 6 -11 11 -25 11 -14 0 -25 2 -25 4 0 12 70 77 79 72 5 -4 12 -2 16 4 4 6
-6 10 -24 10 -17 0 -31 5 -31 10 0 6 15 10 34 10 21 0 36 6 40 15 6 17 -9 21
-19 5 -3 -5 -11 -10 -18 -10 -8 0 -8 3 1 12 9 9 7 14 -6 24 -14 11 -15 13 -2
14 14 0 50 33 50 45 0 3 -7 5 -15 5 -8 0 -15 -5 -15 -10 0 -6 -3 -9 -7 -9 -30
5 -73 -3 -71 -12 2 -6 -3 -14 -9 -16 -17 -6 -16 7 2 31 7 10 18 15 24 12 5 -4
13 -2 16 4 4 6 15 8 26 5 13 -4 19 -2 19 9 0 9 5 16 10 16 6 0 10 5 10 10 0 6
-15 10 -34 10 -25 0 -33 -4 -32 -17 1 -12 -7 -17 -26 -17 -16 0 -27 4 -25 10
1 5 8 9 16 9 8 0 16 6 19 13 2 6 20 15 40 18 31 5 37 10 37 29 0 20 -4 23 -24
18 -17 -4 -22 -2 -17 6 4 6 16 11 26 11 10 0 22 5 26 12 5 7 2 9 -9 5 -8 -3
-21 1 -27 9 -10 11 -9 14 6 14 15 0 16 2 5 9 -16 10 -6 31 15 31 8 0 14 5 14
10 0 6 -4 10 -9 10 -6 0 -13 -5 -16 -10 -3 -5 -11 -10 -17 -10 -6 0 -5 7 3 16
12 15 10 16 -19 10 -19 -5 -32 -4 -32 2 0 10 37 24 79 28 14 2 35 13 47 26 21
21 21 25 8 42 -11 16 -17 17 -26 8 -9 -9 -8 -12 6 -12 41 0 -32 -50 -94 -64
-50 -12 -60 -19 -60 -43 0 -23 -1 -24 -17 -7 -13 13 -14 19 -5 22 7 2 10 8 6
13 -3 5 1 11 8 13 7 2 32 9 56 15 23 7 42 16 42 22 0 6 -7 6 -19 -1 -24 -12
-31 -13 -31 -2 0 5 10 14 23 20 12 6 16 11 9 11 -21 1 -53 -19 -47 -30 4 -5 1
-9 -4 -9 -21 0 -11 39 12 45 28 9 73 58 56 64 -6 2 -14 -1 -18 -5 -7 -11 -57
-34 -71 -34 -21 0 -9 16 20 27 21 8 28 16 24 26 -4 10 4 21 22 30 18 10 23 16
15 22 -7 4 -23 -2 -37 -16 -27 -25 -45 -19 -23 8 12 15 12 16 -3 11 -20 -8
-33 19 -18 37 9 11 7 12 -9 8 -17 -4 -21 -1 -21 21 0 31 -3 31 -36 10 -19 -13
-28 -14 -37 -5 -8 8 -6 11 10 11 16 0 20 5 16 20 -4 14 -11 19 -23 15 -13 -4
-24 4 -40 30 -12 20 -19 39 -15 43 4 4 10 1 12 -5 3 -7 13 -23 23 -35 15 -19
21 -21 32 -10 26 25 7 82 -20 60 -20 -17 -26 -1 -8 24 22 30 20 45 -2 25 -13
-12 -22 -13 -29 -6 -7 7 -14 5 -23 -6 -7 -8 -18 -15 -24 -15 -7 0 -6 3 2 8 15
10 0 62 -18 62 -6 0 -8 -4 -5 -10 12 -19 -6 -31 -22 -14 -14 13 -14 17 -2 25
8 5 19 9 24 10 6 1 -6 5 -25 9 -22 5 -40 5 -48 -2 -7 -6 -16 -7 -20 -3 -4 4
-1 10 6 12 6 3 12 9 12 14 0 4 -7 6 -15 3 -8 -4 -15 -2 -15 4 0 5 7 15 15 22
19 16 20 44 1 37 -7 -3 -19 0 -26 6 -10 10 -12 8 -6 -7 5 -14 3 -17 -10 -12
-9 4 -23 1 -30 -5 -9 -8 -14 -8 -14 -1 0 6 -14 20 -30 32 l-30 22 -36 -31
c-32 -29 -54 -39 -54 -25 0 12 31 35 40 29 5 -3 10 -2 10 3 0 18 -13 20 -36 5
-28 -18 -43 -11 -24 12 7 8 8 15 2 15 -5 0 -12 -7 -16 -15 -9 -24 -30 -17 -44
15 -8 17 -18 30 -23 30 -6 0 -6 -8 1 -19 17 -34 11 -37 -13 -7 -20 25 -24 26
-36 13 -9 -12 -10 -21 -2 -36 15 -28 14 -35 -4 -17 -8 8 -15 24 -15 35 0 28
-33 28 -61 0 -15 -15 -24 -18 -33 -9 -15 12 -46 3 -46 -14 0 -6 -7 -2 -15 8
-20 26 -29 15 -14 -18 10 -20 17 -24 36 -20 12 4 23 2 23 -4 0 -5 -8 -12 -18
-14 -21 -6 -52 13 -52 30 0 18 -32 52 -43 45 -5 -3 -13 1 -18 8 -7 12 -11 12
-18 1 -5 -9 -19 -11 -44 -7 -42 8 -66 49 -48 83 15 28 14 37 -2 23 -8 -6 -17
-8 -21 -4 -3 4 -37 8 -74 9 -37 0 -78 4 -90 8 -22 7 -22 8 -5 21 33 25 8 24
-34 0z m57 -61 c0 -14 7 -15 39 -10 34 5 41 3 46 -14 3 -11 15 -20 26 -20 10
0 19 -4 19 -10 0 -16 -32 -12 -52 6 -10 10 -31 18 -47 19 -31 3 -65 28 -54 39
12 11 23 6 23 -10z m-170 -15 c0 -5 -9 -9 -20 -9 -11 0 -20 4 -20 8 0 4 9 8
20 9 11 1 20 -2 20 -8z m314 -5 c11 -27 6 -40 -8 -21 -8 10 -18 17 -22 16 -18
-3 -25 1 -19 11 10 16 42 12 49 -6z m-441 -21 c-7 -3 -9 -11 -6 -19 5 -14 -8
-20 -20 -8 -9 10 16 43 27 37 6 -4 6 -8 -1 -10z m-88 -48 c0 -10 -5 -20 -11
-22 -7 -2 -11 7 -11 22 0 15 4 24 11 22 6 -2 11 -12 11 -22z m961 -32 c-8 -8
-12 -3 -21 27 l-7 25 17 -23 c9 -13 14 -26 11 -29z m-72 28 c3 -5 -2 -11 -12
-14 -9 -2 -26 -8 -37 -12 -17 -7 -16 -5 4 13 26 24 37 27 45 13z m-950 -64
c-8 -21 -20 -22 -27 -3 -4 11 -1 13 11 9 15 -6 15 -5 3 11 -10 12 -17 14 -25
6 -13 -13 -26 -13 -26 0 0 6 7 10 15 10 8 0 15 6 15 12 0 7 9 4 20 -8 13 -12
18 -27 14 -37z m731 43 c3 -5 -3 -10 -15 -10 -12 0 -18 5 -15 10 3 6 10 10 15
10 5 0 12 -4 15 -10z m-697 -18 c6 -18 -15 -14 -22 4 -4 10 -1 14 6 12 6 -2
14 -10 16 -16z m932 12 c0 -3 -7 -12 -15 -20 -16 -17 -18 -14 -9 10 6 15 24
23 24 10z m-1064 -23 c-4 -5 -1 -11 6 -13 6 -2 8 -9 4 -16 -5 -9 -12 -9 -27 1
-18 11 -18 13 -2 25 20 14 26 15 19 3z m994 -11 c0 -5 -7 -10 -15 -10 -8 0
-15 5 -15 10 0 6 7 10 15 10 8 0 15 -4 15 -10z m160 1 c0 -5 10 -7 21 -4 16 4
20 2 17 -8 -3 -8 -20 -15 -44 -16 -52 -2 -96 6 -89 18 7 10 55 7 75 -6 10 -6
12 -4 7 8 -3 10 -2 17 3 17 6 0 10 -4 10 -9z m130 1 c0 -13 -39 -32 -45 -22
-3 5 3 13 12 19 22 13 33 14 33 3z m50 -7 c0 -8 -4 -15 -9 -15 -5 0 -11 7 -15
15 -3 9 0 15 9 15 8 0 15 -7 15 -15z m40 -24 c0 -11 -31 -24 -39 -16 -3 3 1
10 9 15 19 12 30 12 30 1z m-1426 -10 c6 -9 -35 -24 -43 -15 -6 5 18 24 31 24
4 0 9 -4 12 -9z m1484 -12 c-2 -6 -8 -10 -13 -10 -5 0 -11 4 -13 10 -2 6 4 11
13 11 9 0 15 -5 13 -11z m-1538 -27 c0 -4 -9 -13 -20 -20 -22 -13 -27 -3 -8
16 14 14 28 16 28 4z m1610 -43 c7 -11 8 -24 4 -27 -4 -4 -9 -1 -11 6 -3 7
-11 19 -20 27 -13 13 -13 15 1 15 8 0 20 -9 26 -21z m-1590 2 c0 -5 -7 -11
-15 -15 -8 -3 -12 -11 -10 -18 4 -9 -2 -14 -15 -14 -26 0 -25 10 2 36 23 21
38 26 38 11z m-60 -5 c0 -2 -3 -11 -6 -20 -9 -23 -24 -20 -24 4 0 11 7 20 15
20 8 0 15 -2 15 -4z m1620 -11 c0 -8 -6 -15 -14 -15 -20 0 -29 17 -14 23 22 9
28 7 28 -8z m83 -27 c3 -10 9 -10 27 0 12 7 25 10 28 7 4 -4 -1 -11 -10 -16
-11 -6 -15 -16 -11 -27 6 -15 5 -16 -13 -2 -10 8 -22 19 -25 24 -11 15 -39 -2
-33 -19 7 -18 4 -18 -30 -5 -14 5 -26 15 -26 21 0 7 3 10 6 6 3 -3 20 1 37 8
40 18 44 18 50 3z m-1766 -88 c0 -16 -6 -30 -12 -30 -7 0 -12 14 -13 30 0 18
4 30 12 30 7 0 13 -12 13 -30z m1778 3 c27 -29 33 -47 13 -41 -17 6 -63 68
-50 68 6 0 23 -12 37 -27z m65 -18 c10 -12 9 -15 -7 -15 -11 0 -20 7 -20 15 0
8 4 15 7 15 4 0 13 -7 20 -15z m-15 -46 c10 -15 -1 -23 -20 -15 -9 3 -13 10
-10 16 8 13 22 13 30 -1z m-1845 -8 c0 -15 -33 -22 -44 -10 -8 9 -7 10 7 6 9
-4 17 -2 17 3 0 6 5 10 10 10 6 0 10 -4 10 -9z m1905 -15 c13 -6 16 -10 7 -13
-20 -8 -42 5 -42 24 0 11 3 14 8 7 4 -6 16 -14 27 -18z m53 -5 c3 -8 -1 -12
-9 -9 -7 2 -15 10 -17 17 -3 8 1 12 9 9 7 -2 15 -10 17 -17z m-93 -31 c-6 -9
-9 -9 -16 1 -10 17 0 34 13 21 6 -6 7 -16 3 -22z m70 -10 c-5 -34 -18 -61 -28
-57 -17 5 -28 60 -15 68 20 12 45 6 43 -11z m45 -9 c0 -11 5 -23 10 -26 14 -9
12 -35 -3 -35 -12 0 -38 66 -29 75 11 11 22 4 22 -14z m-2062 -50 c-11 -18
-11 -23 1 -30 7 -5 10 -14 6 -21 -5 -8 -12 -3 -21 15 -11 22 -11 28 3 45 21
25 28 19 11 -9z m1966 -20 c-7 -9 -24 13 -24 32 0 21 1 21 13 -3 8 -14 12 -27
11 -29z m-204 3 c0 -8 -4 -12 -10 -9 -5 3 -10 13 -10 21 0 8 5 12 10 9 6 -3
10 -13 10 -21z m268 -2 c-10 -2 -15 -9 -11 -18 3 -8 -1 -14 -10 -14 -8 0 -17
9 -20 19 -3 14 -1 18 9 14 8 -3 14 0 14 6 0 6 7 7 18 3 16 -6 16 -7 0 -10z
m30 -35 c15 6 15 4 4 -10 -8 -9 -11 -25 -7 -36 5 -16 3 -20 -9 -15 -9 3 -16 1
-16 -5 0 -6 -11 -11 -25 -11 -14 0 -25 -4 -25 -9 0 -4 11 -6 25 -3 29 5 34
-13 5 -21 -21 -5 -34 6 -44 41 -7 22 7 31 19 12 8 -12 16 -12 35 0 12 8 13 12
1 19 -11 7 -11 13 0 32 7 13 14 19 16 12 3 -7 12 -9 21 -6z m-2088 -12 c0 -8
-4 -15 -9 -15 -13 0 -22 16 -14 24 11 11 23 6 23 -9z m-20 -50 c0 -8 -4 -15
-10 -15 -5 0 -10 7 -10 15 0 8 5 15 10 15 6 0 10 -7 10 -15z m30 -46 c0 -5 -6
-9 -13 -9 -8 0 -14 6 -14 14 0 8 6 12 14 9 7 -3 13 -9 13 -14z m33 -1 c-4 -7
-7 -22 -8 -32 0 -11 -5 -21 -11 -23 -6 -2 -10 6 -8 19 1 13 3 29 3 36 1 6 8
12 17 12 10 0 12 -5 7 -12z m1997 -53 c0 -18 -4 -22 -20 -18 -13 3 -20 14 -20
28 0 18 4 22 20 18 13 -3 20 -14 20 -28z m-389 -18 c-6 -8 -8 -17 -4 -20 3 -4
1 -7 -5 -7 -6 0 -10 9 -9 20 1 11 8 20 15 20 11 0 12 -3 3 -13z m469 3 c0 -5
-7 -10 -15 -10 -8 0 -18 0 -22 -1 -4 0 -9 4 -11 10 -2 6 8 11 22 11 14 0 26
-4 26 -10z m48 -21 c-2 -6 -8 -10 -13 -10 -5 0 -11 4 -13 10 -2 6 4 11 13 11
9 0 15 -5 13 -11z m-96 -17 c9 -7 22 -10 30 -7 10 4 17 -1 21 -15 3 -12 12
-20 21 -18 8 2 14 -1 13 -6 -1 -6 -13 -11 -25 -12 -17 -2 -22 1 -18 12 3 8 0
15 -7 15 -7 1 -19 2 -27 3 -8 0 -14 7 -12 14 3 17 -28 15 -33 -3 -3 -8 -7 -22
-10 -30 -2 -8 -11 -12 -20 -9 -19 8 -20 24 0 24 17 0 20 16 5 25 -19 12 -10
21 18 21 16 -1 36 -7 44 -14z m-2092 -16 c0 -14 -29 -30 -38 -21 -3 3 0 5 6 5
7 0 11 3 11 8 -3 14 1 22 11 22 6 0 10 -6 10 -14z m2074 -38 c-8 -27 -12 -33
-19 -27 -7 8 7 49 17 49 5 0 6 -10 2 -22z m36 2 c-13 -9 -13 -11 0 -20 13 -8
12 -10 -3 -10 -10 0 -16 -4 -13 -9 3 -5 0 -11 -8 -14 -10 -4 -12 1 -8 16 6 28
21 47 36 47 6 0 4 -5 -4 -10z m-791 -91 c8 -24 8 -34 -4 -46 -22 -22 -40 -5
-19 18 20 22 2 26 -20 4 -8 -8 -17 -15 -20 -15 -3 0 -6 7 -6 15 0 8 5 14 12
13 7 -2 17 7 23 20 13 30 21 28 34 -9z m305 25 c8 -3 12 -12 9 -20 -3 -8 1
-14 11 -14 9 0 16 -4 16 -9 0 -10 -38 -6 -48 4 -7 7 -13 45 -8 45 3 0 11 -3
20 -6z m-226 -28 c3 -12 -1 -17 -10 -14 -7 3 -15 13 -16 22 -3 12 1 17 10 14
7 -3 15 -13 16 -22z m712 -21 c0 -8 -4 -15 -10 -15 -5 0 -10 7 -10 15 0 8 5
15 10 15 6 0 10 -7 10 -15z m-725 -5 c3 -5 -4 -19 -15 -30 -11 -11 -18 -25
-15 -30 3 -4 -1 -10 -7 -12 -8 -3 -4 -10 11 -17 13 -7 21 -8 17 -3 -3 6 -2 13
4 17 5 3 10 16 10 28 1 19 3 18 14 -8 7 -16 9 -31 4 -33 -4 -2 -8 -9 -8 -15
-1 -15 -35 -57 -47 -57 -7 0 -21 -28 -37 -73 -3 -10 -10 -15 -16 -12 -6 3 -11
-5 -11 -19 -2 -41 -4 -46 -11 -46 -5 0 -12 0 -17 0 -8 0 -11 8 -20 45 -1 5 2
11 8 13 6 2 11 -9 12 -25 l0 -28 10 24 c7 17 6 27 -2 31 -8 6 -8 13 0 28 6 11
11 30 11 41 0 12 6 20 13 19 7 -2 11 7 10 25 -2 32 0 32 34 10 15 -10 24 -13
20 -6 -4 6 -1 14 5 17 9 4 8 5 -2 4 -30 -4 -60 13 -60 34 0 11 5 18 13 15 16
-5 36 22 37 51 0 22 23 31 35 12z m75 5 c0 -13 -25 -55 -32 -55 -6 0 -7 6 -4
13 3 6 9 20 12 30 6 15 24 25 24 12z m611 -18 c-1 -12 -15 -9 -19 4 -3 6 1 10
8 8 6 -3 11 -8 11 -12z m-366 -7 c-3 -5 -12 -10 -20 -10 -8 0 -17 5 -20 10 -4
6 5 10 20 10 15 0 24 -4 20 -10z m475 3 c0 -5 -7 -16 -14 -26 -14 -18 -14 -18
-18 0 -3 15 -8 13 -36 -16 -23 -24 -32 -29 -32 -17 0 9 5 16 11 16 6 0 9 7 6
14 -4 10 -1 13 9 9 7 -3 14 0 14 5 0 9 9 13 53 21 4 0 7 -2 7 -6z m-448 -33
c13 -11 16 -20 9 -20 -13 0 -41 24 -41 34 0 11 11 6 32 -14z m43 -20 c-3 -5 3
-18 14 -29 12 -12 15 -21 8 -24 -6 -2 -3 -6 7 -10 16 -6 18 -3 13 23 -4 17 -2
30 3 30 9 0 14 -17 13 -47 -1 -7 4 -13 11 -14 6 0 2 -4 -9 -9 -19 -8 -19 -9 3
-9 12 -1 22 5 22 12 0 8 4 7 10 -3 15 -23 12 -30 -12 -31 -17 -1 -12 -4 15
-13 21 -6 35 -15 31 -19 -4 -4 2 -7 14 -7 23 0 31 -19 10 -21 -7 0 -4 -4 7 -9
18 -8 17 -9 -8 -9 -16 -1 -26 3 -22 9 3 5 -6 12 -20 16 -14 3 -25 10 -25 14 0
4 -9 10 -21 13 -12 3 -18 10 -15 15 3 5 -4 12 -15 15 -12 3 -18 10 -14 16 3 6
2 11 -3 11 -6 0 -19 16 -31 35 -11 19 -16 35 -11 35 6 0 10 7 10 16 0 8 5 12
10 9 6 -4 8 -10 5 -15z m375 -10 c0 -5 -7 -10 -15 -10 -8 0 -15 5 -15 10 0 6
7 10 15 10 8 0 15 -4 15 -10z m-460 -45 c0 -8 0 -18 -1 -21 0 -4 5 -10 11 -14
7 -4 9 -13 5 -20 -11 -17 -27 3 -31 39 -2 17 1 31 6 31 6 0 10 -7 10 -15z
m-30 -15 c0 -5 -7 -10 -16 -10 -8 0 -13 -4 -10 -9 7 -11 -19 -23 -28 -13 -4 3
3 14 16 24 26 20 38 23 38 8z m90 1 c0 -5 -7 -12 -16 -15 -21 -8 -24 -8 -24 5
0 5 5 7 10 4 6 -3 10 -1 10 4 0 6 5 11 10 11 6 0 10 -4 10 -9z m-1726 -62 c1
-15 -2 -25 -6 -22 -5 2 -8 13 -8 23 0 10 -4 21 -10 25 -5 3 -6 13 -3 21 5 14
7 14 16 -2 6 -10 11 -30 11 -45z m1632 26 c-3 -8 -1 -15 5 -15 6 0 8 -4 5 -9
-6 -9 -46 -3 -46 7 0 5 32 31 39 32 2 0 1 -7 -3 -15z m144 -32 c5 -7 10 -18
10 -26 0 -8 11 -23 25 -33 14 -10 25 -26 25 -34 -1 -12 -3 -12 -14 3 -7 9 -21
17 -30 17 -9 0 -16 8 -16 20 0 10 -7 23 -15 27 -8 5 -17 24 -21 43 -5 33 -5
34 10 15 8 -11 20 -25 26 -32z m-536 -1 c-6 -20 -24 -32 -24 -14 1 23 14 52
21 45 5 -5 6 -18 3 -31z m476 23 c0 -8 -4 -15 -10 -15 -5 0 -10 7 -10 15 0 8
5 15 10 15 6 0 10 -7 10 -15z m-145 -5 c-3 -6 1 -17 9 -26 18 -17 21 -44 6
-44 -5 0 -10 8 -11 18 0 10 -3 12 -6 5 -2 -7 -12 -13 -20 -13 -11 0 -14 -7
-10 -22 3 -13 1 -32 -4 -43 -8 -17 -8 -15 -4 7 7 35 -12 47 -21 13 -4 -15 -1
-31 6 -40 10 -13 8 -15 -14 -15 -14 0 -26 4 -26 9 0 5 -3 16 -6 25 -4 11 -1
16 10 16 10 0 16 8 16 21 0 12 8 23 20 26 11 3 24 20 30 39 7 19 16 34 21 34
6 0 7 -5 4 -10z m-1538 -55 c-9 -8 -18 -11 -22 -6 -3 6 3 14 12 20 24 13 29 6
10 -14z m1159 -16 c-13 -32 -14 -32 -15 -8 -1 14 4 30 11 37 19 19 20 7 4 -29z
m530 33 c6 -4 10 -14 9 -23 -3 -20 -41 -60 -49 -51 -13 12 -5 40 17 56 12 9
16 14 10 11 -7 -3 -13 -1 -13 4 0 13 10 14 26 3z m-43 -19 c-7 -3 -13 -12 -13
-21 0 -12 -3 -13 -12 -4 -9 9 -8 15 8 26 10 8 21 12 24 9 3 -3 -1 -8 -7 -10z
m-1613 -11 c0 -13 -12 -22 -22 -16 -10 6 -1 24 13 24 5 0 9 -4 9 -8z m24 -33
c-9 -10 -21 -16 -25 -13 -5 3 -9 0 -9 -6 0 -6 -5 -8 -11 -4 -7 4 -2 13 15 23
14 8 26 19 26 24 0 4 5 5 11 2 7 -5 4 -13 -7 -26z m1223 1 c-4 -17 -2 -30 3
-30 6 0 11 12 12 28 1 15 4 -7 7 -48 4 -52 3 -79 -6 -87 -17 -18 -43 -5 -42
21 1 16 2 17 6 4 2 -10 9 -18 14 -18 12 0 12 27 -1 35 -5 3 -10 27 -11 53 -1
42 -2 44 -9 19 -5 -16 -6 -35 -4 -42 3 -7 1 -16 -5 -20 -12 -7 -14 21 -5 78 5
28 11 37 27 37 16 0 19 -5 14 -30z m323 20 c13 -9 13 -12 -1 -23 -9 -6 -14
-18 -12 -25 3 -8 11 -5 24 10 l20 23 -13 -25 c-7 -14 -14 -27 -15 -29 -2 -2
-9 2 -17 8 -10 8 -16 9 -21 1 -9 -15 -28 -12 -22 4 3 8 1 17 -6 19 -7 2 -9 8
-4 12 4 5 13 1 20 -9 12 -16 14 -16 25 8 7 16 8 26 2 26 -6 0 -10 -5 -10 -12
0 -6 -3 -9 -6 -5 -7 7 4 27 14 27 4 0 14 -5 22 -10z m230 -15 c0 -14 -4 -25
-10 -25 -8 0 -8 23 -1 48 4 12 11 -3 11 -23z m89 -1 c2 -2 2 -6 -1 -9 -9 -9
-58 6 -58 17 0 9 49 3 59 -8z m-199 -8 c0 -8 -4 -17 -9 -21 -12 -7 -24 12 -16
25 9 15 25 12 25 -4z m-1619 -56 c5 0 9 -4 9 -10 0 -21 -19 -8 -29 20 -12 37
-26 40 -17 4 7 -25 6 -26 -10 -9 -17 17 -18 17 -24 -1 -4 -11 -9 -14 -13 -7
-4 6 7 23 25 37 l33 26 9 -30 c5 -17 13 -30 17 -30z m1229 25 c0 -14 -4 -25
-10 -25 -5 0 -10 11 -10 25 0 14 5 25 10 25 6 0 10 -11 10 -25z m460 -16 c0
-4 -7 -10 -16 -13 -9 -4 -13 -2 -8 5 4 6 1 15 -6 19 -7 4 -9 13 -5 20 6 10 11
9 22 -5 7 -11 13 -22 13 -26z m-439 -6 c-10 -17 -10 -16 -11 3 0 23 13 41 18
25 2 -6 -1 -18 -7 -28z m290 14 c-13 -13 -26 -3 -16 12 3 6 11 8 17 5 6 -4 6
-10 -1 -17z m-1647 -21 c-3 -15 -8 -25 -11 -23 -2 3 -1 17 3 31 3 15 8 25 11
23 2 -3 1 -17 -3 -31z m1726 9 c0 -8 -4 -15 -10 -15 -5 0 -10 7 -10 15 0 8 5
15 10 15 6 0 10 -7 10 -15z m-290 -16 c0 -5 -4 -9 -9 -9 -5 0 -11 -10 -14 -21
-6 -21 -6 -21 -24 -4 -13 13 -14 20 -5 23 6 2 12 10 12 17 0 8 7 11 20 8 11
-3 20 -9 20 -14z m241 -9 c5 0 9 5 9 12 0 9 3 9 12 0 9 -9 8 -16 -5 -29 -12
-14 -13 -23 -5 -37 8 -14 12 -16 19 -5 4 7 11 10 15 7 3 -4 0 -14 -9 -22 -13
-13 -17 -12 -41 13 -21 21 -23 30 -14 39 10 10 10 15 -1 21 -9 6 -10 14 -5 22
7 11 9 10 12 -3 2 -10 8 -18 13 -18z m-61 5 c0 -8 5 -15 10 -15 14 0 12 -27
-2 -33 -9 -3 -5 -11 11 -25 20 -18 22 -24 11 -37 -10 -12 -16 -13 -27 -3 -11
9 -16 9 -23 -2 -5 -8 -12 -11 -17 -7 -4 5 -2 12 5 16 9 5 11 17 6 34 -5 21 -2
27 10 27 9 0 16 7 16 15 0 8 -7 15 -15 15 -9 0 -12 6 -9 15 4 8 10 15 15 15 5
0 9 -7 9 -15z m-110 -10 c0 -8 -4 -15 -10 -15 -5 0 -10 7 -10 15 0 8 5 15 10
15 6 0 10 -7 10 -15z m-1464 -32 c-3 -7 -1 -13 4 -13 6 0 10 -7 10 -15 0 -26
-16 -16 -28 18 -16 44 -15 52 3 37 9 -7 14 -19 11 -27z m52 26 c-2 -6 -8 -10
-13 -10 -5 0 -11 4 -13 10 -2 6 4 11 13 11 9 0 15 -5 13 -11z m1718 -4 c22
-22 7 -38 -16 -17 -11 9 -20 20 -20 24 0 13 20 9 36 -7z m-1679 -10 c19 -20 9
-32 -12 -15 -10 8 -15 9 -15 1 0 -6 -5 -11 -10 -11 -6 0 -5 8 2 20 15 24 15
24 35 5z m1327 -7 c10 -39 6 -44 -14 -18 -23 30 -25 40 -6 40 7 0 16 -10 20
-22z m117 -1 c-13 -13 -26 -3 -16 12 3 6 11 8 17 5 6 -4 6 -10 -1 -17z m164
-2 c26 -25 32 -45 15 -45 -5 0 -10 -5 -10 -11 0 -6 7 -8 16 -5 17 7 13 -2 -24
-51 -13 -18 -31 -33 -40 -33 -11 0 -6 10 16 33 37 38 39 44 15 49 -15 3 -15 4
0 19 15 15 14 18 -4 37 -35 38 -21 45 16 7z m-379 0 c-3 -8 -1 -15 4 -15 6 0
10 -4 10 -10 0 -5 -11 -10 -25 -10 -27 0 -32 13 -12 35 16 19 31 19 23 0z
m132 -4 c3 -8 -1 -12 -9 -9 -7 2 -15 10 -17 17 -3 8 1 12 9 9 7 -2 15 -10 17
-17z m39 -17 c12 -11 13 -18 5 -26 -14 -14 -17 -11 -26 20 -9 26 -1 28 21 6z
m-1367 -8 c0 -8 -4 -18 -10 -21 -14 -9 -12 -21 6 -40 9 -9 13 -19 9 -23 -4 -4
-10 -1 -12 6 -3 7 -12 20 -21 29 -12 12 -13 18 -4 21 7 2 10 8 6 13 -6 11 4
29 17 29 5 0 9 -6 9 -14z m1637 -12 c-9 -9 -28 6 -21 18 4 6 10 6 17 -1 6 -6
8 -13 4 -17z m-1692 -11 c-9 -8 -18 -13 -21 -10 -8 8 19 36 29 30 4 -2 0 -11
-8 -20z m1330 17 c12 -19 -5 -30 -30 -20 -20 7 -25 6 -25 -5 0 -8 -4 -15 -10
-15 -13 0 -13 6 2 30 13 21 52 27 63 10z m135 -10 c0 -5 -4 -10 -10 -10 -5 0
-10 -7 -10 -15 0 -8 -4 -15 -10 -15 -14 0 -13 18 3 35 14 17 27 19 27 5z m-90
-15 c0 -8 -4 -15 -10 -15 -5 0 -10 7 -10 15 0 8 5 15 10 15 6 0 10 -7 10 -15z
m-137 -14 l28 -18 -48 3 c-26 2 -52 3 -56 3 -14 1 18 30 33 31 8 0 28 -8 43
-19z m348 0 c20 -18 20 -19 2 -32 -29 -21 -37 -40 -22 -50 7 -4 10 -12 5 -16
-5 -4 -11 -2 -13 5 -3 6 -11 12 -19 12 -17 0 -19 17 -1 23 6 2 9 8 5 12 -5 5
-17 0 -29 -10 -17 -17 -22 -17 -30 -5 -8 13 -10 13 -18 0 -6 -8 -13 -11 -17
-7 -4 4 6 18 21 32 16 13 32 22 35 18 3 -3 -1 -8 -7 -10 -15 -5 -17 -23 -4
-23 5 0 17 7 26 17 14 13 18 14 25 2 5 -7 12 -10 16 -6 4 4 3 12 -3 18 -10 10
-7 39 3 39 3 0 14 -9 25 -19z m-1451 -8 c0 -2 -6 -11 -14 -19 -8 -7 -24 -26
-35 -40 -12 -15 -24 -24 -28 -20 -10 9 12 42 26 39 15 -4 14 24 -1 30 -8 2 -9
8 -4 13 5 5 11 4 13 -3 3 -7 9 -13 15 -13 6 0 8 7 5 14 -4 10 -1 13 9 9 7 -3
14 -7 14 -10z m-140 -13 c0 -5 3 -17 6 -27 4 -14 1 -13 -15 6 -25 27 -27 43
-6 35 8 -4 15 -10 15 -14z m1300 1 c0 -21 -13 -41 -26 -41 -8 0 -14 5 -14 10
0 6 5 10 10 10 6 0 10 7 10 15 0 8 5 15 10 15 6 0 10 -4 10 -9z m110 0 c0 -4
-11 -20 -25 -35 -21 -23 -28 -26 -40 -16 -17 14 -21 45 -5 35 6 -4 8 -11 5
-16 -4 -5 -1 -9 4 -9 6 0 11 5 11 10 0 6 7 10 15 10 8 0 15 7 15 15 0 8 5 15
10 15 6 0 10 -4 10 -9z m-246 -23 c5 -19 8 -20 15 -8 6 8 13 11 17 8 3 -4 -1
-14 -10 -23 -9 -9 -16 -21 -16 -26 0 -15 -43 -6 -48 9 -3 9 4 11 25 7 l28 -5
-25 12 c-14 6 -27 13 -29 14 -4 4 22 33 30 34 4 0 9 -10 13 -22z m276 -13 c-7
-8 -16 -12 -21 -10 -4 3 -1 15 9 26 9 11 18 15 20 9 2 -6 -2 -17 -8 -25z
m-190 19 c0 -7 -27 -34 -34 -34 -3 0 -6 9 -6 20 0 13 7 20 20 20 11 0 20 -3
20 -6z m-1124 -31 c-4 -9 -1 -20 5 -24 12 -7 4 -29 -10 -29 -15 0 -20 42 -8
56 16 18 20 17 13 -3z m-79 -19 c3 -8 0 -21 -7 -27 -10 -9 -11 -9 -6 0 3 6 2
14 -4 18 -13 8 -13 25 0 25 6 0 13 -7 17 -16z m1363 5 c0 -6 7 -8 16 -5 14 5
15 4 5 -8 -10 -11 -8 -17 6 -25 14 -8 15 -10 3 -11 -8 0 -21 -9 -28 -20 -7
-11 -17 -20 -23 -20 -8 0 -7 5 1 15 17 20 5 31 -13 14 -46 -43 -87 -67 -87
-49 0 6 -5 10 -11 10 -12 0 -38 29 -39 43 0 4 7 7 15 7 8 0 15 -3 15 -7 0 -5
7 -16 15 -27 13 -17 15 -17 30 -2 9 9 23 16 31 16 19 0 18 7 -6 32 -22 24 -26
38 -10 38 6 0 10 -5 10 -11 0 -6 7 -9 15 -5 9 3 15 0 15 -9 0 -8 5 -15 10 -15
10 0 14 14 11 38 -1 6 3 12 9 12 5 0 10 -5 10 -11z m-315 -10 c10 -15 2 -19
-23 -12 -12 3 -19 9 -16 14 7 12 31 11 39 -2z m205 -39 c0 -15 -14 -12 -31 8
-23 27 -12 49 12 23 10 -11 19 -25 19 -31z m-80 19 c7 -11 9 -23 6 -26 -7 -7
-36 22 -36 36 0 18 19 12 30 -10z m331 -12 c-13 -13 -26 -3 -16 12 3 6 11 8
17 5 6 -4 6 -10 -1 -17z m-1461 -2 c9 -11 10 -18 1 -29 -8 -10 -8 -16 3 -25
11 -9 15 -8 21 6 5 10 7 21 7 26 -1 4 5 7 13 7 19 0 19 -10 -2 -39 -15 -22
-15 -25 2 -37 10 -8 15 -17 11 -21 -11 -12 -85 79 -86 105 0 25 12 29 30 7z
m958 -3 c3 -9 -2 -13 -14 -10 -9 1 -19 9 -22 16 -3 9 2 13 14 10 9 -1 19 -9
22 -16z m-47 -25 c-7 -7 -15 -6 -25 3 -22 17 -9 32 16 19 14 -8 17 -14 9 -22z
m-153 -5 c2 -8 -2 -10 -13 -6 -14 6 -16 1 -13 -26 2 -20 -2 -35 -9 -37 -17 -6
-17 59 -1 75 14 14 30 11 36 -6z m59 3 c3 -12 -14 -42 -20 -35 -3 3 -8 16 -12
28 -6 19 -4 23 11 20 9 -1 19 -7 21 -13z m51 -4 c3 -8 -1 -12 -9 -9 -7 2 -15
10 -17 17 -3 8 1 12 9 9 7 -2 15 -10 17 -17z m499 2 c-9 -9 -19 -14 -23 -11
-10 10 6 28 24 28 15 0 15 -1 -1 -17z m-347 -8 c0 -8 -4 -15 -10 -15 -5 0 -10
7 -10 15 0 8 5 15 10 15 6 0 10 -7 10 -15z m68 3 c-6 -18 -28 -21 -28 -4 0 9
7 16 16 16 9 0 14 -5 12 -12z m-984 -20 c-8 -29 -10 -31 -23 -24 -7 5 -7 13 2
26 16 27 30 25 21 -2z m433 7 c3 -9 3 -19 -1 -22 -7 -7 -36 16 -36 28 0 15 30
10 37 -6z m416 -15 c-6 -21 -24 -23 -30 -3 -2 6 4 13 14 16 10 3 19 5 20 6 0
0 -1 -8 -4 -19z m-730 -24 c13 -13 33 -27 45 -30 22 -7 31 -36 12 -36 -5 0
-10 5 -10 10 0 6 -7 10 -15 10 -8 0 -15 4 -15 9 0 5 -10 13 -22 17 -22 7 -38
21 -38 37 0 14 19 7 43 -17z m473 -1 c3 -14 10 -25 15 -25 5 0 9 -4 9 -10 0
-5 -10 -10 -21 -10 -17 0 -20 5 -17 25 4 19 1 25 -13 25 -11 0 -19 5 -19 10 0
22 40 9 46 -15z m227 -6 c10 -7 1 -29 -12 -29 -5 0 -11 10 -14 22 -7 25 4 50
11 28 3 -8 9 -18 15 -21z m77 6 c7 -14 10 -28 7 -32 -8 -8 -36 26 -37 45 0 20
16 14 30 -13z m73 -5 c3 -11 1 -20 -4 -20 -5 0 -9 5 -9 11 0 6 -7 9 -15 5 -18
-6 -20 5 -3 22 14 14 24 8 31 -18z m-923 -10 c-9 -16 -8 -20 5 -20 8 0 15 -4
15 -10 0 -14 -11 -12 -34 5 -15 12 -16 16 -5 29 20 22 32 19 19 -4z m-44 -28
c2 -28 -16 -24 -27 7 -7 18 -6 22 9 19 10 -2 17 -13 18 -26z m867 -3 c3 -13 0
-22 -10 -26 -18 -7 -50 22 -34 31 6 4 11 2 11 -3 0 -6 4 -11 10 -11 5 0 7 7 4
15 -4 8 -2 15 4 15 5 0 12 -9 15 -21z m-723 -21 c0 -5 -4 -8 -10 -8 -5 0 -10
4 -10 10 0 5 -7 7 -15 4 -15 -6 -21 7 -9 19 7 7 44 -14 44 -25z m-60 2 c0 -5
7 -10 15 -10 8 0 15 -4 15 -10 0 -15 -19 -12 -36 4 -16 17 -18 26 -4 26 6 0
10 -4 10 -10z m130 2 c0 -13 -12 -22 -22 -16 -10 6 -1 24 13 24 5 0 9 -4 9 -8z
m-153 -17 c3 -9 3 -19 -1 -22 -7 -7 -36 16 -36 28 0 15 30 10 37 -6z m53 -34
c0 -5 9 -11 20 -14 11 -3 20 -10 20 -16 0 -17 -30 -13 -36 4 -4 8 -12 15 -20
15 -8 0 -14 5 -14 10 0 6 7 10 15 10 8 0 15 -4 15 -9z m120 -1 c0 -5 -7 -10
-15 -10 -8 0 -15 5 -15 10 0 6 7 10 15 10 8 0 15 -4 15 -10z m120 -21 c0 -6
-7 -8 -16 -5 -9 3 -23 6 -31 6 -13 0 -13 3 -3 15 9 11 17 12 31 4 10 -5 19
-15 19 -20z m-139 1 c5 0 9 -4 9 -10 0 -15 -20 -12 -38 7 -16 16 -16 16 1 10
10 -4 23 -7 28 -7z m74 -10 c3 -5 -3 -10 -15 -10 -12 0 -18 5 -15 10 3 6 10
10 15 10 5 0 12 -4 15 -10z m-99 -19 c15 -14 64 -23 64 -11 0 5 7 10 15 10 8
0 15 -4 15 -10 0 -5 -7 -10 -15 -10 -14 0 -20 -12 -16 -33 1 -5 -6 -7 -16 -5
-10 2 -17 9 -16 15 1 6 -11 16 -27 22 -17 5 -30 15 -30 20 0 13 13 14 26 2z
m192 -20 c3 -10 -2 -12 -21 -7 -21 5 -25 3 -21 -9 4 -8 1 -15 -4 -15 -16 0
-24 18 -12 25 6 4 8 10 5 15 -3 5 7 8 21 7 15 -1 29 -8 32 -16z m-73 -31 c3
-5 -3 -10 -14 -10 -12 0 -21 5 -21 10 0 6 6 10 14 10 8 0 18 -4 21 -10z m215
-11 c0 -5 -7 -9 -15 -9 -15 0 -20 12 -9 23 8 8 24 -1 24 -14z m-186 -23 c-3
-9 -10 -13 -16 -10 -5 3 -4 12 3 20 15 18 22 13 13 -10z m56 4 c8 -5 12 -12 8
-15 -9 -9 -48 4 -48 16 0 12 21 11 40 -1z m905 1 c9 -16 -33 -33 -53 -22 -15
9 -14 11 8 20 32 13 38 13 45 2z m-861 -7 c23 -9 20 -24 -4 -24 -11 0 -20 7
-20 15 0 17 2 18 24 9z m120 -10 c23 -9 20 -23 -4 -17 -11 3 -20 9 -20 14 0
11 3 11 24 3z m-58 -16 c4 -6 2 -14 -4 -16 -7 -2 -10 -9 -6 -15 3 -7 -2 -3
-10 7 -9 11 -16 23 -16 28 0 12 28 9 36 -4z m56 -26 c-19 -6 -44 6 -37 18 4 7
14 6 28 -2 14 -7 17 -13 9 -16z m618 13 c10 -13 9 -15 -9 -15 -12 0 -21 6 -21
15 0 8 4 15 9 15 5 0 14 -7 21 -15z m-132 -7 c16 -16 15 -28 -3 -28 -8 0 -15
2 -15 4 0 2 -3 11 -6 20 -7 19 7 21 24 4z m-398 -13 c0 -8 -4 -15 -9 -15 -13
0 -22 16 -14 24 11 11 23 6 23 -9z m270 -4 c7 -14 7 -22 0 -26 -19 -12 -39 3
-33 24 7 26 19 27 33 2z m180 10 c0 -5 -7 -11 -15 -15 -9 -3 -15 0 -15 9 0 8
7 15 15 15 8 0 15 -4 15 -9z m-400 -11 c0 -5 -7 -10 -15 -10 -8 0 -15 5 -15
10 0 6 7 10 15 10 8 0 15 -4 15 -10z m73 1 c4 0 7 -5 7 -10 0 -5 -16 -9 -35
-8 -21 1 -35 6 -35 13 0 11 15 12 63 5z m207 -5 c0 -7 -9 -16 -20 -19 -22 -6
-29 18 -7 26 21 9 27 7 27 -7z m40 -7 c0 -5 -7 -9 -15 -9 -15 0 -20 12 -9 23
8 8 24 -1 24 -14z m-192 -17 c2 -12 0 -22 -5 -22 -12 0 -33 37 -26 44 12 12
28 0 31 -22z m42 13 c0 -8 -4 -15 -10 -15 -5 0 -10 7 -10 15 0 8 5 15 10 15 6
0 10 -7 10 -15z"/>
<path d="M2385 1859 c-10 -15 3 -25 16 -12 7 7 7 13 1 17 -6 3 -14 1 -17 -5z"/>
<path d="M1490 2415 c0 -8 5 -15 10 -15 6 0 10 7 10 15 0 8 -4 15 -10 15 -5 0
-10 -7 -10 -15z"/>
<path d="M1913 2406 c4 -10 1 -13 -9 -9 -15 6 -20 -12 -5 -21 11 -7 43 28 34
37 -12 12 -25 7 -20 -7z"/>
<path d="M2146 2404 c-4 -9 -4 -19 -2 -21 8 -8 26 8 26 23 0 19 -16 18 -24 -2z"/>
<path d="M2220 2365 c-5 -14 -14 -25 -20 -25 -5 0 -10 -4 -10 -10 0 -5 6 -10
13 -10 12 0 21 12 45 63 2 4 -1 7 -7 7 -7 0 -16 -11 -21 -25z"/>
<path d="M1882 2360 c13 -20 28 -27 28 -12 0 10 -22 32 -32 32 -5 0 -3 -9 4
-20z"/>
<path d="M2410 2328 c0 -12 -10 -32 -22 -45 -12 -13 -17 -23 -10 -23 16 0 52
50 52 71 0 11 -4 19 -10 19 -5 0 -10 -10 -10 -22z"/>
<path d="M2286 2308 c-3 -13 -6 -27 -6 -33 1 -15 30 27 30 42 0 22 -17 15 -24
-9z"/>
<path d="M2340 2283 c-14 -23 -18 -39 -11 -41 6 -2 9 -15 5 -30 -5 -26 -5 -26
11 -7 9 11 14 29 11 39 -3 10 2 32 10 48 22 42 0 34 -26 -9z"/>
<path d="M2070 2300 c0 -5 7 -10 15 -10 8 0 15 5 15 10 0 6 -7 10 -15 10 -8 0
-15 -4 -15 -10z"/>
<path d="M2440 2301 c0 -6 5 -13 10 -16 8 -5 7 -11 -1 -21 -16 -19 -5 -29 12
-11 11 12 17 10 36 -14 30 -35 29 -45 -7 -61 -16 -7 -30 -16 -30 -19 0 -3 -11
-23 -25 -44 -15 -20 -24 -40 -21 -43 7 -6 44 37 56 66 5 12 16 22 24 22 7 0
19 7 26 15 17 21 25 19 38 -9 8 -17 7 -27 -1 -36 -9 -10 -7 -11 10 -6 16 5 23
2 28 -13 7 -25 -1 -41 -20 -41 -9 0 -12 6 -9 15 4 8 1 15 -4 15 -6 0 -14 -9
-17 -20 -3 -11 -15 -25 -26 -30 -17 -10 -18 -13 -5 -25 20 -20 26 -19 26 5 0
15 7 20 29 20 16 0 31 5 33 12 6 17 28 0 28 -22 0 -10 5 -22 10 -25 12 -7 63
-105 55 -105 -3 0 1 -10 9 -22 14 -24 32 -86 28 -102 -2 -4 2 -14 9 -22 11
-14 5 -34 -12 -34 -5 0 -9 7 -9 16 0 17 -22 14 -28 -4 -2 -7 3 -12 12 -12 9 0
16 -4 16 -10 0 -5 7 -7 15 -4 30 12 14 -13 -22 -34 -31 -17 -34 -22 -16 -22
12 0 28 7 37 15 21 21 26 19 26 -11 0 -22 -3 -25 -23 -20 -14 3 -33 -1 -46
-10 -16 -12 -25 -13 -36 -4 -8 7 -15 7 -19 1 -4 -6 3 -15 14 -21 17 -9 26 -8
44 4 13 8 33 12 45 9 17 -4 21 -13 21 -49 0 -48 -1 -50 -30 -32 -15 10 -22 9
-39 -6 -13 -11 -27 -15 -40 -11 -13 4 -21 2 -21 -5 0 -18 27 -22 57 -8 33 17
73 12 73 -8 0 -8 0 -17 0 -21 1 -13 -30 -11 -44 3 -8 8 -19 14 -25 14 -15 0
-14 -17 2 -23 10 -4 10 -7 0 -18 -30 -31 -9 -59 43 -59 22 0 32 -18 18 -33 -3
-3 -7 -25 -9 -49 -1 -24 -7 -55 -13 -71 -10 -22 -16 -26 -35 -21 -17 4 -26 1
-31 -12 -9 -23 0 -30 19 -14 23 19 40 -1 25 -30 -11 -20 -13 -20 -29 -6 -10 9
-21 13 -24 9 -9 -9 12 -33 29 -33 22 0 17 -15 -47 -138 -74 -142 -85 -155
-119 -147 -20 5 -23 4 -12 -6 16 -17 15 -29 -3 -29 -9 0 -12 -6 -9 -15 4 -9 0
-15 -9 -15 -11 0 -13 -6 -9 -22 3 -12 1 -19 -4 -15 -6 3 -16 1 -24 -4 -13 -8
-13 -10 0 -19 12 -8 10 -10 -8 -10 -14 0 -26 7 -29 18 -3 9 -18 27 -34 40 -24
20 -29 21 -29 7 0 -9 9 -19 20 -22 11 -3 20 -9 20 -13 0 -5 7 -16 17 -25 13
-13 14 -18 3 -25 -7 -4 -10 -13 -6 -18 4 -6 -11 -21 -34 -34 -28 -16 -40 -30
-40 -45 0 -13 -6 -24 -12 -24 -7 -1 -20 -2 -28 -3 -8 0 -14 -9 -12 -18 2 -10
-2 -18 -8 -18 -6 0 -8 4 -5 10 9 15 -11 12 -24 -4 -10 -11 -8 -16 9 -21 21 -7
27 -3 87 52 7 6 13 19 13 28 0 9 4 14 9 11 12 -8 79 61 164 167 39 48 73 87
77 87 3 0 17 26 30 58 13 31 38 88 57 127 18 38 33 75 33 82 0 7 11 45 24 85
24 74 47 248 40 303 -2 17 -4 59 -5 95 0 54 -10 123 -23 175 -18 70 -36 116
-83 209 -60 119 -79 148 -161 244 -51 58 -72 74 -72 53z m323 -860 c-6 -22
-34 -33 -54 -21 -19 12 7 40 36 40 18 0 22 -4 18 -19z"/>
<path d="M2455 2212 c-22 -41 -55 -55 -55 -25 0 11 5 24 12 31 9 9 9 12 -3 12
-9 0 -26 -12 -40 -27 -17 -19 -19 -24 -7 -20 9 3 22 -1 28 -9 7 -8 20 -14 29
-14 29 0 82 72 63 84 -4 2 -17 -12 -27 -32z"/>
<path d="M2386 2122 c-3 -6 -1 -14 5 -17 15 -10 25 3 12 16 -7 7 -13 7 -17 1z"/>
<path d="M2480 2100 c-14 -11 -19 -20 -12 -20 19 0 52 19 52 30 0 15 -12 12
-40 -10z"/>
<path d="M2454 2019 c-3 -6 -17 -8 -29 -5 -30 8 -39 -6 -20 -30 14 -18 14 -18
15 -1 0 10 4 16 10 12 10 -6 50 15 50 27 0 12 -18 10 -26 -3z"/>
<path d="M2590 2010 c-6 -11 -18 -20 -27 -20 -12 0 -14 -3 -7 -10 6 -6 17 -8
25 -5 20 8 41 43 29 50 -5 3 -14 -4 -20 -15z"/>
<path d="M2614 1975 c-4 -8 -12 -15 -20 -15 -8 0 -14 -4 -14 -10 0 -15 21 -12
41 6 16 14 18 14 24 -5 8 -27 -1 -41 -26 -41 -11 0 -17 -4 -14 -10 11 -18 34
-11 51 16 15 22 15 27 3 35 -8 5 -10 9 -6 9 9 0 -18 30 -28 30 -3 0 -8 -7 -11
-15z"/>
<path d="M567 1964 c-3 -3 -3 -12 0 -20 3 -8 0 -14 -6 -14 -6 0 -11 -11 -11
-25 0 -16 -6 -25 -15 -25 -16 0 -20 -15 -7 -24 11 -7 3 -66 -9 -66 -5 0 -6
-12 -3 -26 4 -15 2 -29 -4 -33 -11 -7 -5 -51 7 -51 3 0 15 46 25 103 11 56 26
113 33 127 20 39 14 77 -10 54z"/>
<path d="M2496 1914 c-27 -19 -13 -30 14 -11 12 8 18 17 13 20 -4 3 -17 -1
-27 -9z"/>
<path d="M2182 1891 c4 -13 18 -16 19 -4 0 4 -5 9 -11 12 -7 2 -11 -2 -8 -8z"/>
<path d="M2595 1860 c-3 -5 -15 -10 -26 -10 -11 0 -17 -4 -14 -10 10 -16 41
-11 60 10 16 17 16 20 2 20 -9 0 -19 -4 -22 -10z"/>
<path d="M2670 1860 c-8 -5 -11 -12 -7 -16 4 -4 13 -2 19 4 15 15 7 24 -12 12z"/>
<path d="M2620 1821 c0 -5 -3 -17 -7 -27 -4 -11 -2 -15 7 -12 20 6 33 48 15
48 -8 0 -15 -4 -15 -9z"/>
<path d="M2680 1820 c-13 -9 -13 -11 0 -19 17 -12 30 -5 30 15 0 16 -9 18 -30
4z"/>
<path d="M1910 1796 c0 -10 9 -16 21 -16 24 0 21 23 -4 28 -10 2 -17 -3 -17
-12z"/>
<path d="M2570 1760 c0 -5 6 -10 14 -10 8 0 18 5 21 10 3 6 -3 10 -14 10 -12
0 -21 -4 -21 -10z"/>
<path d="M507 1618 c1 -29 2 -57 3 -62 0 -6 5 -5 11 1 13 13 8 105 -6 110 -6
2 -10 -17 -8 -49z"/>
<path d="M2715 1590 c-4 -6 -15 -8 -25 -5 -22 7 -36 -11 -15 -19 17 -6 65 13
65 26 0 11 -18 10 -25 -2z"/>
<path d="M450 1565 c0 -9 9 -15 21 -15 18 0 19 2 9 15 -7 8 -16 15 -21 15 -5
0 -9 -7 -9 -15z"/>
<path d="M495 1510 c-11 -4 -30 -6 -42 -3 -29 7 -30 -13 -2 -20 12 -3 18 -10
14 -16 -3 -6 1 -11 10 -11 12 0 15 5 11 16 -5 13 -1 15 19 10 20 -5 25 -3 25
14 0 22 -4 23 -35 10z"/>
<path d="M490 1440 c0 -5 7 -10 16 -10 8 0 15 -8 14 -17 -3 -26 11 -63 22 -63
6 0 8 10 4 23 -3 12 -6 34 -6 50 0 22 -4 27 -25 27 -14 0 -25 -4 -25 -10z"/>
<path d="M450 1370 c-8 -5 -11 -12 -8 -16 10 -9 38 3 38 16 0 12 -10 13 -30 0z"/>
<path d="M2670 1370 c-8 -5 -12 -11 -9 -14 7 -8 49 5 49 15 0 12 -21 11 -40
-1z"/>
<path d="M460 1310 c0 -5 7 -10 15 -10 8 0 15 5 15 10 0 6 -7 10 -15 10 -8 0
-15 -4 -15 -10z"/>
<path d="M515 1299 c-4 -6 -5 -13 -2 -16 7 -7 27 6 27 18 0 12 -17 12 -25 -2z"/>
<path d="M560 1295 c0 -8 -4 -15 -10 -15 -5 0 -10 -4 -10 -10 0 -5 9 -10 19
-10 18 0 18 -2 -4 -45 -14 -25 -20 -47 -15 -50 6 -4 10 -2 10 3 0 5 10 13 23
16 19 6 20 8 5 14 -11 4 -14 12 -9 20 12 20 34 -12 26 -38 -5 -15 -3 -20 7
-18 23 5 20 -14 -4 -26 -25 -12 -31 -47 -10 -54 8 -2 11 5 10 20 -3 18 2 24
25 26 15 2 27 5 27 8 0 2 -11 21 -23 42 -13 20 -32 58 -42 85 -18 49 -25 57
-25 32z"/>
<path d="M2640 1300 c0 -5 7 -10 15 -10 8 0 15 5 15 10 0 6 -7 10 -15 10 -8 0
-15 -4 -15 -10z"/>
<path d="M450 1280 c0 -4 7 -11 16 -14 22 -9 26 -8 22 6 -5 13 -38 20 -38 8z"/>
<path d="M2683 1276 c-24 -11 -31 -26 -12 -26 17 0 49 20 49 30 0 12 -8 11
-37 -4z"/>
<path d="M2568 1252 c-26 -5 -22 -22 5 -18 12 1 21 6 20 10 -2 11 -6 13 -25 8z"/>
<path d="M470 1230 c0 -5 7 -10 15 -10 8 0 15 5 15 10 0 6 -7 10 -15 10 -8 0
-15 -4 -15 -10z"/>
<path d="M515 1229 c-4 -6 -5 -12 -2 -15 7 -7 37 7 37 17 0 13 -27 11 -35 -2z"/>
<path d="M2555 1200 c-3 -11 -3 -24 0 -30 12 -19 22 -10 22 20 0 34 -13 40
-22 10z"/>
<path d="M2620 1200 c0 -5 7 -10 15 -10 8 0 15 5 15 10 0 6 -7 10 -15 10 -8 0
-15 -4 -15 -10z"/>
<path d="M2605 1171 c-6 -11 9 -23 19 -14 9 9 7 23 -3 23 -6 0 -12 -4 -16 -9z"/>
<path d="M540 1150 c-8 -5 -12 -11 -9 -14 7 -8 49 5 49 15 0 12 -21 11 -40 -1z"/>
<path d="M2523 1145 c-15 -17 -16 -25 -3 -25 5 0 14 9 20 20 12 23 1 26 -17 5z"/>
<path d="M2615 1110 c29 -30 58 -43 35 -15 -10 12 -10 15 4 15 9 0 16 5 16 10
0 6 -10 8 -24 4 -13 -3 -27 -1 -30 5 -4 6 -12 11 -18 11 -7 0 1 -13 17 -30z"/>
<path d="M630 1110 c-8 -5 -12 -11 -9 -14 7 -8 49 5 49 15 0 12 -21 11 -40 -1z"/>
<path d="M2570 1100 c-12 -8 -11 -10 8 -10 12 0 22 5 22 10 0 13 -11 13 -30 0z"/>
<path d="M672 1083 c25 -52 34 -63 50 -63 24 0 23 5 -9 40 -24 27 -50 41 -41
23z"/>
<path d="M2490 1069 c0 -5 4 -9 10 -9 5 0 7 -7 4 -15 -4 -9 0 -15 8 -15 21 0
15 43 -5 46 -9 1 -17 -2 -17 -7z"/>
<path d="M2560 1072 c0 -11 56 -52 72 -52 9 0 9 3 1 11 -6 6 -9 17 -6 24 3 9
-2 12 -15 8 -11 -2 -23 0 -26 6 -8 13 -26 15 -26 3z"/>
<path d="M2430 1050 c0 -13 28 -25 38 -16 3 4 0 11 -8 16 -20 13 -30 12 -30 0z"/>
<path d="M2330 1031 c0 -10 47 -21 54 -13 3 3 3 9 0 13 -7 12 -54 12 -54 0z"/>
<path d="M2546 1033 c-12 -12 -6 -41 10 -47 24 -9 54 -7 54 4 0 6 -11 10 -24
10 -27 0 -44 16 -24 22 8 3 9 6 1 11 -5 4 -13 4 -17 0z"/>
<path d="M742 1001 c-9 -5 -6 -13 11 -29 15 -14 27 -18 37 -12 8 5 12 10 10
12 -3 2 -14 11 -25 20 -12 10 -26 14 -33 9z"/>
<path d="M2496 1000 c-13 -4 -16 -9 -8 -14 7 -4 19 -3 28 2 21 12 5 22 -20 12z"/>
<path d="M2275 980 c3 -5 13 -10 21 -10 8 0 14 5 14 10 0 6 -9 10 -21 10 -11
0 -17 -4 -14 -10z"/>
<path d="M2382 979 c2 -7 10 -15 17 -17 8 -3 12 1 9 9 -2 7 -10 15 -17 17 -8
3 -12 -1 -9 -9z"/>
<path d="M2540 966 c0 -15 -6 -17 -28 -13 -20 4 -31 1 -39 -13 -12 -18 -8 -30
10 -30 5 0 6 7 3 16 -5 13 -1 15 21 11 32 -6 62 18 44 36 -8 8 -11 6 -11 -7z"/>
<path d="M2380 942 c0 -5 11 -19 24 -32 18 -16 30 -20 43 -14 15 7 14 8 -9 12
-16 2 -30 11 -33 23 -6 19 -25 27 -25 11z"/>
<path d="M2240 931 c0 -5 -3 -18 -7 -28 -6 -15 -4 -16 9 -5 12 10 17 10 20 1
2 -7 10 -9 16 -5 17 10 15 26 -3 26 -8 0 -15 5 -15 10 0 6 -4 10 -10 10 -5 0
-10 -4 -10 -9z"/>
<path d="M2399 866 c14 -14 33 -26 43 -26 28 0 21 14 -14 30 -18 7 -37 16 -43
18 -5 3 1 -7 14 -22z"/>
<path d="M2270 872 c0 -13 39 -46 46 -39 3 3 -4 15 -15 26 -23 23 -31 26 -31
13z"/>
<path d="M2230 860 c0 -5 7 -10 15 -10 8 0 15 5 15 10 0 6 -7 10 -15 10 -8 0
-15 -4 -15 -10z"/>
<path d="M1380 850 c0 -5 7 -10 15 -10 8 0 15 5 15 10 0 6 -7 10 -15 10 -8 0
-15 -4 -15 -10z"/>
<path d="M2350 835 c0 -8 5 -15 10 -15 6 0 10 7 10 15 0 8 -4 15 -10 15 -5 0
-10 -7 -10 -15z"/>
<path d="M2272 759 c2 -7 10 -15 17 -17 8 -3 12 1 9 9 -2 7 -10 15 -17 17 -8
3 -12 -1 -9 -9z"/>
<path d="M2340 749 c0 -21 36 -66 45 -57 4 4 2 13 -4 20 -7 7 -18 22 -26 33
-12 17 -14 17 -15 4z"/>
<path d="M830 733 c0 -15 31 -46 38 -38 3 3 -4 15 -16 28 -12 12 -22 16 -22
10z"/>
<path d="M870 730 c0 -13 25 -19 41 -10 8 5 19 4 26 -2 13 -11 32 -4 21 8 -10
9 -88 13 -88 4z"/>
<path d="M2160 734 c0 -10 31 -36 37 -31 3 3 -2 13 -10 22 -16 15 -27 19 -27
9z"/>
<path d="M2046 713 c-11 -11 -6 -23 9 -23 8 0 15 4 15 9 0 13 -16 22 -24 14z"/>
<path d="M2226 695 c4 -8 10 -15 15 -15 5 0 9 7 9 15 0 8 -7 15 -15 15 -9 0
-12 -6 -9 -15z"/>
<path d="M2170 677 c0 -17 32 -47 49 -47 8 0 3 12 -11 29 -25 33 -38 38 -38
18z"/>
<path d="M904 665 c8 -8 19 -15 24 -15 5 0 15 -6 21 -14 13 -16 51 -28 51 -16
0 7 -92 60 -106 60 -3 0 1 -7 10 -15z"/>
<path d="M2100 646 c0 -16 28 -42 36 -33 7 6 -18 47 -28 47 -5 0 -8 -6 -8 -14z"/>
<path d="M379 630 c-28 -23 -19 -25 29 -8 30 11 35 11 47 -6 8 -10 19 -15 25
-11 6 4 18 -1 26 -11 14 -18 14 -18 12 5 -2 19 -13 27 -48 37 -59 18 -64 18
-91 -6z"/>
<path d="M1994 617 c-3 -9 -3 -21 1 -27 3 -5 1 -10 -4 -10 -6 0 -11 -4 -11
-10 0 -5 9 -10 20 -10 17 0 19 5 13 33 -7 40 -11 44 -19 24z"/>
<path d="M2291 622 c-17 -6 -71 -56 -71 -66 0 -9 28 8 65 38 29 25 32 38 6 28z"/>
<path d="M420 601 c0 -28 -39 -91 -56 -91 -26 0 -14 -20 16 -26 34 -7 41 -24
10 -24 -11 0 -20 -5 -20 -11 0 -7 9 -9 23 -5 12 3 34 6 50 6 15 0 27 5 27 10
0 6 -7 10 -15 10 -23 0 -18 16 10 34 26 17 29 15 25 -18 -1 -16 3 -18 36 -11
49 9 79 44 52 61 -6 4 -19 -4 -30 -20 -20 -27 -42 -27 -31 -1 3 9 -1 15 -11
15 -9 0 -16 5 -16 10 0 6 5 10 10 10 6 0 10 5 10 11 0 6 -7 8 -15 5 -9 -3 -18
1 -21 9 -3 7 -12 11 -20 8 -8 -3 -14 1 -14 10 0 9 -4 19 -10 22 -5 3 -10 -3
-10 -14z m35 -51 c3 -6 -1 -13 -10 -16 -19 -8 -30 0 -20 15 8 14 22 14 30 1z"/>
<path d="M2150 613 c0 -5 11 -9 25 -9 14 -1 25 2 25 7 0 5 -11 9 -25 9 -14 0
-25 -3 -25 -7z"/>
<path d="M1920 601 c0 -6 4 -11 9 -11 4 0 8 -16 7 -36 0 -21 4 -39 9 -41 6 -2
10 16 10 44 0 37 -4 48 -17 51 -10 2 -18 -1 -18 -7z"/>
<path d="M1160 585 c0 -8 5 -15 10 -15 6 0 10 7 10 15 0 8 -4 15 -10 15 -5 0
-10 -7 -10 -15z"/>
<path d="M1420 590 c0 -5 7 -10 15 -10 8 0 15 5 15 10 0 6 -7 10 -15 10 -8 0
-15 -4 -15 -10z"/>
<path d="M1800 587 c0 -8 9 -22 20 -32 24 -21 28 -1 6 28 -16 20 -26 22 -26 4z"/>
<path d="M2050 586 c0 -8 7 -16 15 -20 17 -6 18 -4 9 18 -8 20 -24 21 -24 2z"/>
<path d="M1080 579 c0 -5 9 -9 20 -9 11 0 20 4 20 8 0 4 -9 8 -20 9 -11 1 -20
-2 -20 -8z"/>
<path d="M1360 580 c-20 -12 -5 -24 16 -12 9 5 12 12 7 15 -5 3 -15 2 -23 -3z"/>
<path d="M2098 573 c-4 -13 1 -18 18 -18 18 0 20 3 13 18 -5 9 -14 17 -18 17
-5 0 -11 -8 -13 -17z"/>
<path d="M360 570 c0 -5 7 -10 15 -10 8 0 15 5 15 10 0 6 -7 10 -15 10 -8 0
-15 -4 -15 -10z"/>
<path d="M1862 568 c6 -18 28 -21 28 -4 0 9 -7 16 -16 16 -9 0 -14 -5 -12 -12z"/>
<path d="M2447 573 c-13 -12 -7 -24 18 -33 25 -9 35 -30 14 -30 -5 0 -7 -5 -4
-10 7 -11 -22 -26 -32 -16 -3 3 0 13 8 22 12 14 11 16 -6 13 -10 -2 -28 -19
-38 -37 -19 -32 -19 -33 -1 -53 14 -16 27 -20 51 -16 37 6 75 -2 67 -14 -7
-13 -44 -11 -44 2 0 5 -5 7 -12 3 -17 -11 19 -33 43 -27 22 6 56 50 46 59 -3
4 -21 9 -38 13 -18 4 -35 13 -37 20 -4 11 5 13 46 7 35 -4 53 -3 58 5 5 9 2
10 -9 6 -10 -3 -17 -2 -17 3 0 5 -11 12 -25 16 -28 7 -33 22 -10 31 9 3 24 -2
35 -12 24 -22 44 -12 28 15 -7 11 -20 17 -32 14 -11 -2 -23 1 -27 7 -5 8 -12
8 -27 0 -16 -8 -21 -7 -26 4 -6 16 -18 19 -29 8z m21 -132 c3 -8 -5 -11 -24
-9 -15 2 -29 8 -31 15 -3 8 6 11 23 9 16 -2 30 -9 32 -15z"/>
<path d="M1287 545 c-15 -22 -16 -25 -2 -25 8 0 15 7 15 15 0 8 5 15 10 15 6
0 10 5 10 10 0 17 -14 10 -33 -15z"/>
<path d="M1612 551 c2 -14 9 -26 16 -29 17 -5 15 10 -3 34 -15 18 -15 18 -13
-5z"/>
<path d="M1730 557 c0 -14 32 -57 42 -57 3 0 -2 16 -10 35 -16 35 -32 46 -32
22z"/>
<path d="M1670 531 c0 -19 17 -38 25 -29 7 7 -7 48 -16 48 -5 0 -9 -9 -9 -19z"/>
<path d="M1797 544 c-13 -13 -8 -52 8 -58 16 -6 17 4 6 42 -3 13 -9 20 -14 16z"/>
<path d="M2720 539 c-11 -8 -12 -12 -3 -16 9 -3 10 -10 3 -24 -14 -25 -30 -24
-30 1 0 11 -4 20 -10 20 -5 0 -10 -11 -10 -25 0 -22 -4 -25 -38 -25 -36 0 -39
-2 -40 -30 0 -24 4 -30 19 -30 16 0 19 5 14 20 -5 17 -2 20 20 20 24 0 26 -3
21 -24 -3 -14 -2 -28 4 -31 5 -3 10 3 10 14 0 27 11 52 20 46 5 -3 6 -14 3
-25 -5 -18 0 -20 35 -20 31 0 43 5 55 24 11 17 13 26 5 34 -14 14 -48 -3 -48
-23 0 -8 -7 -15 -15 -15 -8 0 -15 7 -15 15 0 8 5 15 11 15 5 0 7 5 3 12 -4 6
1 17 10 24 18 13 19 45 1 51 -5 1 -17 -2 -25 -8z"/>
<path d="M1233 523 c-7 -3 -13 -11 -13 -19 0 -18 8 -18 26 0 15 16 7 26 -13
19z"/>
<path d="M1460 515 c0 -8 5 -15 10 -15 6 0 10 7 10 15 0 8 -4 15 -10 15 -5 0
-10 -7 -10 -15z"/>
<path d="M1585 499 c-4 -6 0 -18 9 -27 15 -15 16 -15 16 5 0 25 -15 38 -25 22z"/>
<path d="M1860 490 c0 -11 5 -20 10 -20 6 0 10 9 10 20 0 11 -4 20 -10 20 -5
0 -10 -9 -10 -20z"/>
<path d="M310 484 c0 -14 -3 -15 -12 -6 -18 18 -28 14 -25 -10 1 -17 -4 -24
-20 -26 -12 -2 -25 -12 -28 -22 -4 -11 -12 -17 -21 -13 -22 8 -16 -13 9 -30
16 -12 18 -16 7 -16 -9 -1 -21 4 -28 11 -9 9 -12 8 -12 -4 0 -9 13 -25 30 -35
17 -9 30 -20 30 -23 0 -3 -14 -11 -31 -19 -22 -9 -29 -19 -27 -34 2 -11 9 -22
17 -25 9 -3 11 2 6 17 -7 23 14 37 41 27 14 -5 14 -8 0 -28 -9 -12 -16 -32
-16 -44 0 -12 -7 -25 -16 -28 -23 -9 -24 -8 -24 14 0 21 -15 27 -25 10 -18
-29 47 -54 73 -28 9 9 15 9 24 0 15 -15 38 -16 38 -1 0 5 -4 7 -10 4 -5 -3
-10 -2 -10 3 0 14 28 23 36 11 4 -6 10 -7 17 0 7 5 15 10 20 10 4 1 7 4 7 9 0
4 -23 7 -50 7 -45 0 -50 2 -48 20 2 12 12 21 25 23 23 3 50 29 40 38 -3 3 -14
0 -24 -7 -15 -9 -25 -9 -39 -1 -10 6 -13 12 -6 12 6 0 12 5 12 11 0 6 9 18 19
27 24 22 36 102 14 102 -8 0 -11 5 -8 11 4 6 13 8 21 5 8 -3 14 1 14 9 0 8 0
18 1 22 0 4 -4 9 -10 11 -6 2 -11 -4 -11 -14z m-24 -98 c7 -19 -13 -56 -31
-56 -18 0 -19 9 -5 44 10 29 28 34 36 12z"/>
<path d="M1515 479 c-6 -19 0 -38 9 -28 10 12 16 49 7 49 -5 0 -13 -9 -16 -21z"/>
<path d="M1402 469 c2 -6 8 -10 13 -10 5 0 11 4 13 10 2 6 -4 11 -13 11 -9 0
-15 -5 -13 -11z"/>
<path d="M1440 465 c0 -8 5 -15 10 -15 6 0 10 7 10 15 0 8 -4 15 -10 15 -5 0
-10 -7 -10 -15z"/>
<path d="M137 463 c-13 -12 -7 -25 8 -19 19 7 19 -13 0 -38 -19 -25 -19 -36 0
-36 9 0 18 8 21 18 3 9 10 25 15 34 17 32 -19 66 -44 41z"/>
<path d="M483 420 c-13 -15 -23 -34 -23 -40 0 -8 -9 -10 -23 -6 -21 5 -23 2
-23 -29 0 -22 5 -35 13 -35 7 0 13 9 13 20 0 11 4 20 9 20 5 0 11 -9 14 -20 4
-14 14 -20 35 -20 17 0 32 -6 36 -15 7 -18 42 -20 52 -3 5 7 9 21 9 31 1 10 8
23 15 30 10 10 12 8 7 -10 -7 -31 10 -39 34 -17 28 25 24 45 -8 42 -16 -1 -38
2 -49 6 -22 7 -54 -14 -54 -35 0 -5 -5 -9 -11 -9 -6 0 -8 8 -4 19 3 12 0 21
-10 25 -11 4 -15 -1 -15 -19 0 -14 -4 -25 -10 -25 -18 0 -11 56 10 75 20 18
27 46 13 44 -5 0 -18 -13 -30 -29z m97 -75 c0 -8 -4 -15 -10 -15 -5 0 -10 7
-10 15 0 8 5 15 10 15 6 0 10 -7 10 -15z"/>
<path d="M1694 435 c-18 -14 -18 -14 9 -15 17 0 27 5 27 15 0 19 -11 19 -36 0z"/>
<path d="M2242 393 c-7 -2 -17 -14 -23 -25 -10 -18 -8 -24 11 -38 21 -15 21
-18 5 -33 -22 -22 -47 -22 -43 1 2 10 -3 17 -12 17 -16 0 -16 -32 0 -49 18
-18 61 4 76 40 8 19 19 32 25 28 7 -4 5 -12 -5 -23 -24 -26 -19 -40 17 -49 42
-11 62 -5 74 21 l10 22 12 -23 c10 -20 19 -22 84 -22 l72 0 2 55 c2 41 -1 55
-11 55 -9 0 -12 -8 -8 -25 3 -18 0 -25 -12 -25 -8 0 -23 -12 -33 -27 l-17 -26
-6 24 c-5 22 -11 24 -60 24 -47 0 -55 -3 -55 -19 0 -32 -22 -29 -27 3 -3 19 1
36 11 45 31 31 -36 70 -87 49z m28 -11 c0 -17 -27 -45 -34 -34 -3 6 1 18 10
26 17 18 24 20 24 8z m40 -22 c0 -11 -4 -20 -10 -20 -5 0 -10 2 -10 4 0 2 -3
11 -6 20 -4 11 -1 16 10 16 9 0 16 -8 16 -20z m-9 -73 c-13 -13 -26 -3 -16 12
3 6 11 8 17 5 6 -4 6 -10 -1 -17z m139 -2 c0 -8 -4 -15 -10 -15 -5 0 -10 7
-10 15 0 8 5 15 10 15 6 0 10 -7 10 -15z m80 0 c0 -8 -4 -15 -10 -15 -5 0 -10
7 -10 15 0 8 5 15 10 15 6 0 10 -7 10 -15z"/>
<path d="M374 372 c-6 -4 -13 -15 -17 -24 -4 -11 -13 -16 -24 -12 -10 3 -7 -1
6 -9 30 -18 47 -13 55 16 10 38 5 46 -20 29z"/>
<path d="M2658 353 c-9 -10 -19 -37 -23 -60 -4 -29 -15 -50 -33 -64 -23 -18
-27 -19 -30 -5 -4 19 -32 22 -32 3 0 -8 11 -19 24 -25 21 -9 28 -7 50 13 14
13 28 35 32 49 7 31 20 34 27 6 8 -31 68 -28 83 5 7 13 9 26 6 30 -12 11 -31
4 -37 -15 -8 -25 -37 -27 -33 -2 2 11 -3 17 -14 16 -11 -1 -18 5 -18 17 0 25
17 33 29 12 8 -15 12 -16 23 -5 11 11 10 16 -6 28 -25 18 -30 18 -48 -3z"/>
<path d="M2830 326 c0 -36 -30 -80 -38 -56 -3 7 2 16 9 21 7 4 10 11 6 15 -10
10 -37 -16 -37 -36 0 -34 55 -33 65 1 8 25 25 24 25 -1 0 -11 7 -20 16 -20 18
0 10 38 -12 56 -8 6 -14 21 -14 33 0 11 -4 21 -10 21 -5 0 -10 -15 -10 -34z"/>
<path d="M170 315 c0 -8 5 -15 10 -15 6 0 10 7 10 15 0 8 -4 15 -10 15 -5 0
-10 -7 -10 -15z"/>
<path d="M2576 283 c9 -36 10 -37 31 -28 16 7 16 9 2 12 -11 3 -15 11 -12 24
4 13 0 19 -11 19 -13 0 -15 -6 -10 -27z"/>
<path d="M1427 232 c-3 -4 3 -13 14 -20 10 -7 19 -8 19 -3 0 13 -28 33 -33 23z"/>
<path d="M385 212 c-9 -9 -6 -42 4 -42 5 0 12 8 16 17 6 16 8 16 23 -4 10 -13
28 -21 45 -21 23 0 27 5 27 28 0 26 -2 27 -55 27 -30 0 -57 -2 -60 -5z"/>
</g>
</svg>
